<svg width="34" height="35" viewBox="0 0 34 35" fill="none" xmlns="http://www.w3.org/2000/svg">
<path fill-rule="evenodd" clip-rule="evenodd" d="M9.93302 0.872381C11.7609 0.788231 12.3438 0.769531 17.0001 0.769531C21.6564 0.769531 22.2392 0.78979 24.0655 0.872381C25.8919 0.954973 27.1386 1.24638 28.2294 1.66869C29.3717 2.10035 30.408 2.77511 31.265 3.64777C32.1377 4.5033 32.8109 5.53803 33.241 6.68185C33.6649 7.77268 33.9547 9.01935 34.0389 10.8426C34.123 12.6736 34.1417 13.2565 34.1417 17.9112C34.1417 22.5675 34.1215 23.1503 34.0389 24.9782C33.9563 26.8015 33.6649 28.0482 33.241 29.139C32.8109 30.283 32.1366 31.3194 31.265 32.1762C30.408 33.0488 29.3717 33.722 28.2294 34.1521C27.1386 34.576 25.8919 34.8659 24.0687 34.95C22.2392 35.0342 21.6564 35.0529 17.0001 35.0529C12.3438 35.0529 11.7609 35.0326 9.93302 34.95C8.10977 34.8674 6.86311 34.576 5.77227 34.1521C4.62833 33.722 3.59189 33.0477 2.73508 32.1762C1.86301 31.3201 1.18815 30.2842 0.757557 29.1405C0.335248 28.0497 0.0453984 26.803 -0.0387516 24.9798C-0.122902 23.1488 -0.141602 22.5659 -0.141602 17.9112C-0.141602 13.2549 -0.121343 12.6721 -0.0387516 10.8457C0.0438401 9.01935 0.335248 7.77268 0.757557 6.68185C1.18878 5.53816 1.86416 4.50223 2.73664 3.64621C3.59223 2.77433 4.62763 2.09948 5.77072 1.66869C6.86155 1.24638 8.10822 0.956531 9.93147 0.872381H9.93302ZM23.9269 3.95788C22.1192 3.87529 21.5769 3.85815 17.0001 3.85815C12.4232 3.85815 11.8809 3.87529 10.0733 3.95788C8.40118 4.03424 7.49423 4.31318 6.8896 4.54849C6.09017 4.86016 5.51827 5.22948 4.91831 5.82944C4.34959 6.38273 3.9119 7.05629 3.63736 7.80073C3.40205 8.40536 3.12311 9.31231 3.04675 10.9844C2.96416 12.7921 2.94702 13.3344 2.94702 17.9112C2.94702 22.488 2.96416 23.0303 3.04675 24.838C3.12311 26.5101 3.40205 27.417 3.63736 28.0217C3.91162 28.765 4.34952 29.4397 4.91831 29.993C5.47152 30.5617 6.14627 30.9996 6.8896 31.2739C7.49423 31.5092 8.40118 31.7882 10.0733 31.8645C11.8809 31.9471 12.4217 31.9642 17.0001 31.9642C21.5784 31.9642 22.1192 31.9471 23.9269 31.8645C25.5989 31.7882 26.5059 31.5092 27.1105 31.2739C27.91 30.9622 28.4819 30.5929 29.0818 29.993C29.6506 29.4397 30.0885 28.765 30.3628 28.0217C30.5981 27.417 30.877 26.5101 30.9534 24.838C31.036 23.0303 31.0531 22.488 31.0531 17.9112C31.0531 13.3344 31.036 12.7921 30.9534 10.9844C30.877 9.31231 30.5981 8.40536 30.3628 7.80073C30.0511 7.00131 29.6818 6.4294 29.0818 5.82944C28.5285 5.26076 27.855 4.82308 27.1105 4.54849C26.5059 4.31318 25.5989 4.03424 23.9269 3.95788ZM14.8106 23.1955C16.0334 23.7045 17.3949 23.7732 18.6627 23.3899C19.9305 23.0065 21.0259 22.1949 21.7617 21.0937C22.4976 19.9925 22.8283 18.6699 22.6974 17.3519C22.5665 16.0339 21.9821 14.8023 21.0439 13.8673C20.4459 13.2697 19.7228 12.812 18.9267 12.5274C18.1306 12.2427 17.2812 12.1381 16.4398 12.2211C15.5984 12.3041 14.7859 12.5726 14.0607 13.0073C13.3356 13.442 12.7158 14.0321 12.2461 14.7351C11.7763 15.4381 11.4683 16.2364 11.3441 17.0728C11.22 17.9091 11.2828 18.7625 11.528 19.5716C11.7733 20.3808 12.1949 21.1254 12.7625 21.7521C13.3301 22.3787 14.0296 22.8717 14.8106 23.1955ZM10.7698 11.681C11.588 10.8628 12.5593 10.2138 13.6283 9.77103C14.6973 9.32824 15.843 9.10034 17.0001 9.10034C18.1571 9.10034 19.3029 9.32824 20.3718 9.77103C21.4408 10.2138 22.4121 10.8628 23.2303 11.681C24.0484 12.4991 24.6974 13.4704 25.1402 14.5394C25.583 15.6084 25.8109 16.7541 25.8109 17.9112C25.8109 19.0683 25.583 20.214 25.1402 21.283C24.6974 22.3519 24.0484 23.3232 23.2303 24.1414C21.5779 25.7938 19.3368 26.7221 17.0001 26.7221C14.6633 26.7221 12.4222 25.7938 10.7698 24.1414C9.11749 22.4891 8.18921 20.248 8.18921 17.9112C8.18921 15.5744 9.11749 13.3333 10.7698 11.681ZM27.765 10.4125C27.9678 10.2212 28.1301 9.99125 28.2424 9.73614C28.3546 9.48103 28.4146 9.20599 28.4186 8.9273C28.4227 8.64861 28.3708 8.37193 28.266 8.11366C28.1612 7.85539 28.0057 7.62076 27.8086 7.42368C27.6115 7.22659 27.3769 7.07105 27.1186 6.96627C26.8603 6.86149 26.5837 6.80959 26.305 6.81366C26.0263 6.81772 25.7512 6.87766 25.4961 6.98992C25.241 7.10219 25.011 7.2645 24.8198 7.46725C24.4478 7.86155 24.2442 8.38529 24.2521 8.9273C24.26 9.4693 24.4788 9.98688 24.8621 10.3702C25.2454 10.7535 25.763 10.9723 26.305 10.9802C26.847 10.9881 27.3707 10.7845 27.765 10.4125Z" fill="#FBF6EF"/>
</svg>
