<svg width="34" height="35" viewBox="0 0 34 35" fill="none" xmlns="http://www.w3.org/2000/svg">
<path fill-rule="evenodd" clip-rule="evenodd" d="M9.93302 0.127264C11.7609 0.043114 12.3438 0.0244141 17.0001 0.0244141C21.6564 0.0244141 22.2392 0.0446724 24.0655 0.127264C25.8919 0.209856 27.1386 0.501264 28.2294 0.923572C29.3717 1.35523 30.408 2.02999 31.265 2.90266C32.1377 3.75818 32.8109 4.79291 33.241 5.93673C33.6649 7.02756 33.9547 8.27423 34.0389 10.0975C34.123 11.9285 34.1417 12.5113 34.1417 17.1661C34.1417 21.8224 34.1215 22.4052 34.0389 24.2331C33.9563 26.0564 33.6649 27.303 33.241 28.3939C32.8109 29.5378 32.1366 30.5743 31.265 31.4311C30.408 32.3037 29.3717 32.9769 28.2294 33.407C27.1386 33.8309 25.8919 34.1207 24.0687 34.2049C22.2392 34.289 21.6564 34.3077 17.0001 34.3077C12.3438 34.3077 11.7609 34.2875 9.93302 34.2049C8.10977 34.1223 6.86311 33.8309 5.77227 33.407C4.62833 32.9769 3.59189 32.3026 2.73508 31.4311C1.86301 30.575 1.18815 29.5391 0.757557 28.3954C0.335248 27.3046 0.0453984 26.0579 -0.0387516 24.2347C-0.122902 22.4036 -0.141602 21.8208 -0.141602 17.1661C-0.141602 12.5098 -0.121343 11.927 -0.0387516 10.1006C0.0438401 8.27423 0.335248 7.02756 0.757557 5.93673C1.18878 4.79304 1.86416 3.75711 2.73664 2.9011C3.59223 2.02921 4.62763 1.35436 5.77072 0.923572C6.86155 0.501264 8.10822 0.211414 9.93147 0.127264H9.93302ZM23.9269 3.21276C22.1192 3.13017 21.5769 3.11303 17.0001 3.11303C12.4232 3.11303 11.8809 3.13017 10.0733 3.21276C8.40118 3.28912 7.49423 3.56806 6.8896 3.80337C6.09017 4.11504 5.51827 4.48436 4.91831 5.08432C4.34959 5.63761 3.9119 6.31117 3.63736 7.05561C3.40205 7.66025 3.12311 8.5672 3.04675 10.2393C2.96416 12.047 2.94702 12.5893 2.94702 17.1661C2.94702 21.7429 2.96416 22.2852 3.04675 24.0929C3.12311 25.765 3.40205 26.6719 3.63736 27.2765C3.91162 28.0199 4.34952 28.6946 4.91831 29.2478C5.47152 29.8166 6.14627 30.2545 6.8896 30.5288C7.49423 30.7641 8.40118 31.043 10.0733 31.1194C11.8809 31.202 12.4217 31.2191 17.0001 31.2191C21.5784 31.2191 22.1192 31.202 23.9269 31.1194C25.5989 31.043 26.5059 30.7641 27.1105 30.5288C27.91 30.2171 28.4819 29.8478 29.0818 29.2478C29.6506 28.6946 30.0885 28.0199 30.3628 27.2765C30.5981 26.6719 30.877 25.765 30.9534 24.0929C31.036 22.2852 31.0531 21.7429 31.0531 17.1661C31.0531 12.5893 31.036 12.047 30.9534 10.2393C30.877 8.5672 30.5981 7.66025 30.3628 7.05561C30.0511 6.25619 29.6818 5.68428 29.0818 5.08432C28.5285 4.51564 27.855 4.07797 27.1105 3.80337C26.5059 3.56806 25.5989 3.28912 23.9269 3.21276ZM14.8106 22.4504C16.0334 22.9594 17.3949 23.0281 18.6627 22.6447C19.9305 22.2614 21.0259 21.4498 21.7617 20.3486C22.4976 19.2473 22.8283 17.9248 22.6974 16.6068C22.5665 15.2888 21.9821 14.0572 21.0439 13.1222C20.4459 12.5245 19.7228 12.0669 18.9267 11.7823C18.1306 11.4976 17.2812 11.393 16.4398 11.476C15.5984 11.559 14.7859 11.8275 14.0607 12.2622C13.3356 12.6969 12.7158 13.287 12.2461 13.99C11.7763 14.6929 11.4683 15.4913 11.3441 16.3276C11.22 17.1639 11.2828 18.0174 11.528 18.8265C11.7733 19.6356 12.1949 20.3803 12.7625 21.0069C13.3301 21.6336 14.0296 22.1265 14.8106 22.4504ZM10.7698 10.9359C11.588 10.1177 12.5593 9.4687 13.6283 9.02591C14.6973 8.58312 15.843 8.35522 17.0001 8.35522C18.1571 8.35522 19.3029 8.58312 20.3718 9.02591C21.4408 9.4687 22.4121 10.1177 23.2303 10.9359C24.0484 11.754 24.6974 12.7253 25.1402 13.7943C25.583 14.8633 25.8109 16.009 25.8109 17.1661C25.8109 18.3231 25.583 19.4689 25.1402 20.5378C24.6974 21.6068 24.0484 22.5781 23.2303 23.3963C21.5779 25.0487 19.3368 25.9769 17.0001 25.9769C14.6633 25.9769 12.4222 25.0487 10.7698 23.3963C9.11749 21.7439 8.18921 19.5029 8.18921 17.1661C8.18921 14.8293 9.11749 12.5882 10.7698 10.9359ZM27.765 9.66738C27.9678 9.47612 28.1301 9.24613 28.2424 8.99102C28.3546 8.73591 28.4146 8.46087 28.4186 8.18218C28.4227 7.90349 28.3708 7.62682 28.266 7.36854C28.1612 7.11027 28.0057 6.87564 27.8086 6.67856C27.6115 6.48147 27.3769 6.32594 27.1186 6.22115C26.8603 6.11637 26.5837 6.06448 26.305 6.06854C26.0263 6.0726 25.7512 6.13254 25.4961 6.24481C25.241 6.35707 25.011 6.51938 24.8198 6.72213C24.4478 7.11643 24.2442 7.64018 24.2521 8.18218C24.26 8.72418 24.4788 9.24177 24.8621 9.62506C25.2454 10.0084 25.763 10.2272 26.305 10.2351C26.847 10.243 27.3707 10.0393 27.765 9.66738Z" fill="#1E1F22"/>
</svg>
