<svg width="219" height="81" viewBox="0 0 219 81" fill="none" xmlns="http://www.w3.org/2000/svg">
<path d="M9.74504 80.8491C9.18155 80.8491 8.61254 80.8269 8.038 80.7823C7.46347 80.7378 6.87788 80.6542 6.28124 80.5317C5.68461 80.4203 5.07692 80.27 4.45819 80.0806C3.83946 79.8801 3.22073 79.624 2.60199 79.3121V58.9963C2.60199 58.7067 2.53018 58.4728 2.38654 58.2946C2.24291 58.1053 1.98878 57.9438 1.62417 57.8101L0 57.2087V56.3065L7.1762 55.0534V65.0276L7.14305 66.3307C7.59605 65.6624 8.06563 65.1389 8.55177 64.7602C9.04897 64.3704 9.52959 64.0808 9.99364 63.8915C10.4577 63.691 10.8941 63.5629 11.3029 63.5072C11.7228 63.4515 12.0763 63.4237 12.3636 63.4237C13.358 63.4237 14.2474 63.6242 15.0319 64.0251C15.8164 64.4261 16.4793 64.983 17.0207 65.6958C17.5731 66.4087 17.993 67.2607 18.2802 68.252C18.5675 69.2433 18.7111 70.3293 18.7111 71.5099C18.7111 72.8019 18.5067 74.016 18.0979 75.152C17.7002 76.2881 17.1146 77.2794 16.3412 78.1259C15.5678 78.9724 14.6286 79.6407 13.5237 80.1307C12.4189 80.6097 11.1593 80.8491 9.74504 80.8491ZM9.84448 79.0281C10.5627 79.0281 11.1759 78.8554 11.6841 78.5101C12.2034 78.1537 12.6288 77.6859 12.9602 77.1068C13.2917 76.5164 13.5348 75.8426 13.6895 75.0852C13.8441 74.3167 13.9215 73.5092 13.9215 72.6627C13.9215 71.7048 13.8497 70.8305 13.706 70.0397C13.5624 69.2489 13.3304 68.575 13.01 68.0181C12.7006 67.4501 12.2973 67.0157 11.8001 66.715C11.314 66.4031 10.7229 66.2472 10.0268 66.2472C9.81686 66.2472 9.57931 66.2583 9.31414 66.2806C9.06002 66.3029 8.80037 66.3586 8.5352 66.4477C8.28108 66.5256 8.03248 66.6593 7.78941 66.8486C7.54633 67.0268 7.34193 67.2663 7.1762 67.567V77.7416C7.29773 77.8976 7.46347 78.0535 7.67339 78.2094C7.88332 78.3542 8.10982 78.4879 8.35289 78.6104C8.60702 78.7329 8.86114 78.8332 9.11526 78.9111C9.38043 78.9891 9.62351 79.0281 9.84448 79.0281Z" fill="#FBF6EF"/>
<path d="M28.083 80.8491C26.7903 80.8491 25.6246 80.6487 24.586 80.2477C23.5585 79.8356 22.6801 79.2564 21.9509 78.5101C21.2327 77.7528 20.6748 76.8394 20.277 75.7702C19.8903 74.7009 19.6969 73.5036 19.6969 72.1782C19.6969 70.953 19.8903 69.8113 20.277 68.7532C20.6637 67.684 21.2217 66.754 21.9509 65.9632C22.6912 65.1724 23.5916 64.5542 24.6523 64.1087C25.713 63.652 26.9229 63.4237 28.2819 63.4237C29.7403 63.4237 30.9999 63.6631 32.0605 64.1421C33.1212 64.621 33.9886 65.2615 34.6625 66.0634C35.3476 66.8542 35.8558 67.7787 36.1873 68.8368C36.5187 69.8837 36.6845 70.9753 36.6845 72.1113C36.6845 73.3143 36.4911 74.4503 36.1044 75.5196C35.7287 76.5777 35.1708 77.5022 34.4305 78.293C33.7013 79.0838 32.8008 79.7075 31.7291 80.1641C30.6684 80.6208 29.453 80.8491 28.083 80.8491ZM28.315 79.0448C29.0332 79.0448 29.6132 78.8332 30.0552 78.4099C30.5082 77.9867 30.8617 77.452 31.1159 76.806C31.37 76.16 31.5413 75.4472 31.6296 74.6675C31.718 73.8879 31.7622 73.1416 31.7622 72.4288C31.7622 71.5377 31.7015 70.6634 31.5799 69.8058C31.4584 68.9481 31.254 68.1796 30.9667 67.5002C30.6794 66.8208 30.2983 66.275 29.8232 65.8629C29.3591 65.4397 28.7735 65.228 28.0664 65.228C27.3593 65.228 26.7792 65.4341 26.3262 65.8462C25.8843 66.2583 25.5362 66.7874 25.2821 67.4334C25.039 68.0794 24.8678 68.7922 24.7683 69.5719C24.6799 70.3404 24.6357 71.0811 24.6357 71.7939C24.6357 72.5847 24.6855 73.4089 24.7849 74.2666C24.8843 75.1242 25.0667 75.9094 25.3318 76.6223C25.608 77.3239 25.9837 77.9031 26.4588 78.3598C26.9339 78.8164 27.5526 79.0448 28.315 79.0448ZM31.9114 61.3353C31.591 61.3353 31.2927 61.2796 31.0164 61.1682C30.7513 61.0457 30.5137 60.8842 30.3038 60.6837C30.1049 60.4832 29.9447 60.2493 29.8232 59.982C29.7127 59.7036 29.6574 59.4028 29.6574 59.0798C29.6574 58.7568 29.7127 58.4561 29.8232 58.1777C29.9447 57.8992 30.1049 57.6597 30.3038 57.4593C30.5137 57.2588 30.7513 57.1028 31.0164 56.9915C31.2927 56.8689 31.591 56.8077 31.9114 56.8077C32.2318 56.8077 32.5301 56.8689 32.8063 56.9915C33.0936 57.1028 33.3422 57.2588 33.5521 57.4593C33.7731 57.6486 33.9388 57.8825 34.0493 58.161C34.1709 58.4394 34.2316 58.7401 34.2316 59.0631C34.2316 59.3861 34.1709 59.6869 34.0493 59.9653C33.9388 60.2438 33.7731 60.4832 33.5521 60.6837C33.3422 60.8842 33.0936 61.0457 32.8063 61.1682C32.5301 61.2796 32.2318 61.3353 31.9114 61.3353ZM24.3872 61.3353C24.0667 61.3353 23.7684 61.2796 23.4922 61.1682C23.227 61.0457 22.9895 60.8842 22.7796 60.6837C22.5807 60.4832 22.4205 60.2493 22.2989 59.982C22.1884 59.7036 22.1332 59.4028 22.1332 59.0798C22.1332 58.7568 22.1884 58.4561 22.2989 58.1777C22.4205 57.8992 22.5807 57.6597 22.7796 57.4593C22.9895 57.2588 23.227 57.1028 23.4922 56.9915C23.7684 56.8689 24.0667 56.8077 24.3872 56.8077C24.7076 56.8077 25.0059 56.8689 25.2821 56.9915C25.5694 57.1028 25.818 57.2588 26.0279 57.4593C26.2489 57.6486 26.4146 57.8825 26.5251 58.161C26.6466 58.4394 26.7074 58.7401 26.7074 59.0631C26.7074 59.3861 26.6466 59.6869 26.5251 59.9653C26.4146 60.2438 26.2489 60.4832 26.0279 60.6837C25.818 60.8842 25.5694 61.0457 25.2821 61.1682C25.0059 61.2796 24.7076 61.3353 24.3872 61.3353Z" fill="#FBF6EF"/>
<path d="M45.1158 80.7656C43.9115 80.7656 42.8453 80.554 41.9172 80.1307C41.0001 79.6964 40.2267 79.106 39.5969 78.3598C38.9671 77.6135 38.4865 76.7503 38.1551 75.7702C37.8346 74.7789 37.6744 73.7264 37.6744 72.6126C37.6744 71.7995 37.7628 71.0087 37.9396 70.2402C38.1164 69.4716 38.3816 68.7532 38.7351 68.0849C39.0887 67.4055 39.5196 66.7874 40.0278 66.2305C40.5471 65.6624 41.1438 65.1779 41.8177 64.777C42.5028 64.376 43.2651 64.0641 44.1048 63.8414C44.9445 63.6075 45.8616 63.4905 46.856 63.4905C47.4526 63.4905 47.994 63.5351 48.4802 63.6242C48.9774 63.7133 49.4193 63.8246 49.806 63.9583C50.1927 64.092 50.5297 64.2312 50.817 64.376C51.1153 64.5208 51.3694 64.6489 51.5793 64.7602L50.9827 68.252H50.3364C49.9276 67.9513 49.4911 67.6506 49.0271 67.3498C48.563 67.0491 48.0935 66.7818 47.6184 66.5479C47.1543 66.3029 46.6903 66.1079 46.2262 65.9632C45.7732 65.8072 45.3478 65.7293 44.9501 65.7293C44.6959 65.7293 44.4584 65.8072 44.2374 65.9632C44.0275 66.1191 43.7899 66.3753 43.5248 66.7317C43.3922 66.8987 43.2596 67.1326 43.127 67.4334C43.0055 67.7341 42.895 68.0905 42.7956 68.5026C42.6961 68.9147 42.6132 69.377 42.547 69.8893C42.4807 70.4017 42.4475 70.9586 42.4475 71.56C42.4475 72.5959 42.5414 73.5147 42.7293 74.3167C42.9171 75.1186 43.2099 75.798 43.6076 76.3549C44.0054 76.9007 44.5136 77.3184 45.1324 77.608C45.7622 77.8864 46.5135 78.0256 47.3863 78.0256C47.8283 78.0256 48.2481 77.9755 48.6459 77.8753C49.0437 77.775 49.4083 77.6469 49.7397 77.491C50.0822 77.3351 50.3916 77.168 50.6678 76.9898C50.9551 76.8116 51.2092 76.6557 51.4302 76.522H51.8777V77.9421C51.5131 78.2763 51.0877 78.6104 50.6015 78.9445C50.1264 79.2787 49.6016 79.585 49.0271 79.8634C48.4636 80.1307 47.8504 80.3479 47.1875 80.515C46.5356 80.6821 45.845 80.7656 45.1158 80.7656Z" fill="#FBF6EF"/>
<path d="M52.1059 79.3455L53.7797 78.7608C54.0339 78.6716 54.2162 78.5491 54.3267 78.3932C54.4482 78.2373 54.509 78.0479 54.509 77.8252V58.8794C54.509 58.6009 54.4371 58.3949 54.2935 58.2612C54.1499 58.1275 53.9013 57.9939 53.5477 57.8602L51.9235 57.2087V56.3065L59.0997 55.0534V72.1113L65.149 65.746L63.243 64.9607V63.9082H70.2701V64.9607L68.447 65.5789C68.215 65.6569 67.9775 65.7794 67.7344 65.9464C67.5024 66.1135 67.309 66.275 67.1543 66.4309L63.7071 69.6387L69.11 78.0758C69.2425 78.2763 69.4138 78.4489 69.6237 78.5937C69.8337 78.7273 70.0712 78.8387 70.3364 78.9278L71.5462 79.3455V80.398H63.127V79.3455L64.4529 78.7608L60.6079 72.4455L59.0832 73.4646V77.8252C59.0832 78.0813 59.1495 78.2763 59.282 78.4099C59.4146 78.5436 59.5914 78.6605 59.8124 78.7608L61.1382 79.3455V80.398H52.1059V79.3455Z" fill="#FBF6EF"/>
<path d="M78.8935 80.7656C77.6671 80.7656 76.5457 80.5818 75.5292 80.2143C74.5237 79.8467 73.6509 79.3009 72.9106 78.577C72.1814 77.853 71.6124 76.962 71.2036 75.9038C70.8058 74.8346 70.6069 73.6038 70.6069 72.2116C70.6069 71.0421 70.8003 69.9283 71.187 68.8702C71.5737 67.8009 72.1261 66.8653 72.8443 66.0634C73.5735 65.2615 74.4574 64.621 75.496 64.1421C76.5457 63.6631 77.7279 63.4237 79.0427 63.4237C80.1807 63.4237 81.1861 63.613 82.059 63.9917C82.9319 64.3593 83.6611 64.8438 84.2467 65.4452C84.8433 66.0467 85.2963 66.7372 85.6057 67.5169C85.915 68.2966 86.0697 69.0874 86.0697 69.8893C86.0697 69.9896 86.0642 70.1288 86.0531 70.307C86.0531 70.4852 86.0476 70.669 86.0366 70.8583C86.0255 71.0365 86.0145 71.2092 86.0034 71.3762C85.9924 71.5433 85.9813 71.6658 85.9703 71.7438H75.3634C75.3745 73.8043 75.8164 75.3748 76.6893 76.4552C77.5621 77.5244 78.9101 78.0591 80.7332 78.0591C81.3298 78.0591 81.8712 78.0089 82.3573 77.9087C82.8435 77.7973 83.2854 77.6637 83.6832 77.5077C84.0809 77.3518 84.4345 77.1847 84.7439 77.0065C85.0643 76.8283 85.346 76.6724 85.5891 76.5387H86.0366V77.9421C85.6609 78.2651 85.2134 78.5937 84.6941 78.9278C84.1749 79.262 83.6114 79.5683 83.0037 79.8467C82.396 80.114 81.7441 80.3312 81.048 80.4983C80.352 80.6765 79.6338 80.7656 78.8935 80.7656ZM81.3961 70.1733C81.3961 69.4605 81.3574 68.8034 81.2801 68.2019C81.2027 67.5893 81.0591 67.0658 80.8492 66.6314C80.6503 66.1859 80.3741 65.8406 80.0205 65.5956C79.678 65.3394 79.2471 65.2113 78.7278 65.2113C78.2195 65.2113 77.7665 65.3283 77.3688 65.5622C76.971 65.7849 76.634 66.1079 76.3578 66.5312C76.0927 66.9544 75.8827 67.4779 75.728 68.1017C75.5734 68.7142 75.4739 69.4048 75.4297 70.1733H81.3961Z" fill="#FBF6EF"/>
<path d="M86.9025 79.3455L88.6427 78.7608C88.8416 78.6939 89.0128 78.5825 89.1565 78.4266C89.3001 78.2707 89.3719 78.0702 89.3719 77.8252V67.6004C89.3719 67.4334 89.3554 67.283 89.3222 67.1494C89.2891 67.0157 89.2338 66.8987 89.1565 66.7985C89.0791 66.6983 88.9797 66.6092 88.8582 66.5312C88.7477 66.4421 88.5985 66.3641 88.4107 66.2973L86.7699 65.7293V64.8271L93.7473 63.574V67.2496H93.7804C94.0677 66.7707 94.3715 66.3029 94.6919 65.8462C95.0124 65.3895 95.3659 64.983 95.7526 64.6266C96.1504 64.2702 96.5868 63.9806 97.0619 63.7578C97.537 63.5351 98.0784 63.4237 98.6861 63.4237C98.9954 63.4237 99.2717 63.4404 99.5147 63.4738C99.7578 63.4961 99.9788 63.5351 100.178 63.5907C100.388 63.6353 100.586 63.6966 100.774 63.7745C100.962 63.8414 101.155 63.9138 101.354 63.9917V69.0707H99.6639L98.9844 67.8176C98.9402 67.7174 98.8518 67.6227 98.7192 67.5336C98.5977 67.4445 98.4596 67.3665 98.3049 67.2997C98.1502 67.2218 97.9845 67.1661 97.8077 67.1326C97.6309 67.0881 97.4597 67.0658 97.2939 67.0658C96.9735 67.0658 96.6697 67.0881 96.3824 67.1326C96.0951 67.1661 95.8134 67.2385 95.5372 67.3498C95.2609 67.4612 94.9902 67.6171 94.7251 67.8176C94.471 68.0181 94.2113 68.2854 93.9461 68.6196V77.8252C93.9461 78.0813 94.0124 78.2874 94.145 78.4433C94.2776 78.5993 94.4544 78.7051 94.6754 78.7608L96.7636 79.3455V80.398H86.9025V79.3455Z" fill="#FBF6EF"/>
<path d="M117.245 80.916C116.295 80.916 115.395 80.7656 114.544 80.4649C113.704 80.1753 112.964 79.7632 112.323 79.2286C111.682 78.6828 111.174 78.0256 110.799 77.2571C110.434 76.4775 110.252 75.6087 110.252 74.6508C110.252 74.2721 110.29 73.8767 110.368 73.4646C110.456 73.0414 110.578 72.6237 110.732 72.2116C110.887 71.7883 111.064 71.3874 111.263 71.0087C111.472 70.63 111.705 70.2958 111.959 70.0063L115.456 67.8009C114.76 67.1326 114.202 66.5479 113.782 66.0467C113.373 65.5455 113.058 65.0832 112.837 64.66C112.616 64.2368 112.472 63.8246 112.406 63.4237C112.34 63.0227 112.307 62.5995 112.307 62.1539C112.307 61.352 112.517 60.6169 112.936 59.9486C113.367 59.2692 113.931 58.69 114.627 58.2111C115.323 57.7321 116.119 57.359 117.013 57.0917C117.919 56.8244 118.853 56.6907 119.814 56.6907C120.853 56.6907 121.792 56.8077 122.632 57.0416C123.471 57.2755 124.19 57.6041 124.786 58.0273C125.383 58.4394 125.841 58.9462 126.162 59.5476C126.482 60.138 126.642 60.7895 126.642 61.5024C126.642 62.3266 126.51 63.0784 126.245 63.7578C125.98 64.4261 125.637 65.022 125.217 65.5455L121.124 67.7508L126.725 73.331C126.991 72.93 127.234 72.5123 127.455 72.0779C127.676 71.6436 127.863 71.2259 128.018 70.8249C128.173 70.4239 128.3 70.0564 128.399 69.7222C128.499 69.3881 128.571 69.1208 128.615 68.9203L125.665 68.0181V66.9322H134.25V68.0181L132.261 68.6363C132.051 68.7142 131.863 68.8646 131.697 69.0874C131.532 69.3101 131.388 69.5329 131.266 69.7557C131.012 70.268 130.753 70.7358 130.487 71.159C130.233 71.5823 129.968 71.9833 129.692 72.362C129.427 72.7406 129.156 73.1138 128.88 73.4813C128.604 73.8377 128.316 74.2164 128.018 74.6174L130.703 77.2738C130.813 77.3852 130.94 77.5077 131.084 77.6414C131.239 77.7639 131.393 77.8864 131.548 78.0089C131.714 78.1315 131.874 78.2428 132.029 78.3431C132.195 78.4433 132.338 78.5157 132.46 78.5603L134.797 79.3121V80.398H129.808C129.3 80.398 128.88 80.3702 128.548 80.3145C128.217 80.2588 127.913 80.1586 127.637 80.0138C127.372 79.869 127.096 79.6685 126.808 79.4123C126.532 79.145 126.189 78.7997 125.781 78.3765L124.935 77.5077C124.339 78.098 123.742 78.6104 123.146 79.0448C122.56 79.468 121.952 79.8189 121.323 80.0973C120.693 80.3758 120.041 80.5818 119.367 80.7155C118.693 80.8491 117.986 80.916 117.245 80.916ZM119.897 66.4644C120.428 66.1302 120.858 65.7794 121.19 65.4118C121.521 65.0331 121.776 64.6377 121.952 64.2256C122.129 63.8135 122.245 63.3847 122.3 62.9392C122.367 62.4937 122.4 62.0259 122.4 61.5358C122.4 61.0903 122.339 60.6837 122.217 60.3162C122.107 59.9486 121.936 59.6367 121.704 59.3806C121.483 59.1133 121.212 58.9128 120.892 58.7791C120.571 58.6343 120.207 58.5619 119.798 58.5619C119.411 58.5619 119.046 58.6399 118.704 58.7958C118.361 58.9518 118.063 59.169 117.809 59.4474C117.566 59.7147 117.367 60.0321 117.212 60.3997C117.069 60.7673 116.997 61.1571 116.997 61.5692C116.997 61.9924 117.047 62.3934 117.146 62.7721C117.245 63.1397 117.411 63.5184 117.643 63.9082C117.875 64.2869 118.174 64.6823 118.538 65.0944C118.903 65.5065 119.356 65.9632 119.897 66.4644ZM118.82 77.8753C119.361 77.8753 119.842 77.853 120.262 77.8085C120.693 77.7528 121.09 77.6637 121.455 77.5411C121.831 77.4075 122.195 77.2404 122.549 77.0399C122.902 76.8283 123.278 76.5666 123.676 76.2547L116.599 69.0038C116.257 69.2934 115.98 69.6164 115.77 69.9728C115.572 70.3293 115.417 70.708 115.306 71.1089C115.207 71.5099 115.141 71.9387 115.108 72.3954C115.074 72.852 115.058 73.3198 115.058 73.7988C115.058 74.3 115.141 74.7956 115.306 75.2857C115.483 75.7646 115.732 76.199 116.052 76.5888C116.384 76.9675 116.781 77.2794 117.245 77.5244C117.71 77.7583 118.234 77.8753 118.82 77.8753Z" fill="#FBF6EF"/>
<path d="M142.273 79.3455L143.947 78.7608C144.201 78.6716 144.383 78.5491 144.494 78.3932C144.615 78.2373 144.676 78.0479 144.676 77.8252V58.8794C144.676 58.6009 144.604 58.3949 144.46 58.2612C144.317 58.1275 144.068 57.9939 143.715 57.8602L142.09 57.2087V56.3065L149.267 55.0534V72.1113L155.316 65.746L153.41 64.9607V63.9082H160.437V64.9607L158.614 65.5789C158.382 65.6569 158.144 65.7794 157.901 65.9464C157.669 66.1135 157.476 66.275 157.321 66.4309L153.874 69.6387L159.277 78.0758C159.409 78.2763 159.581 78.4489 159.791 78.5937C160.001 78.7273 160.238 78.8387 160.503 78.9278L161.713 79.3455V80.398H153.294V79.3455L154.62 78.7608L150.775 72.4455L149.25 73.4646V77.8252C149.25 78.0813 149.316 78.2763 149.449 78.4099C149.582 78.5436 149.758 78.6605 149.979 78.7608L151.305 79.3455V80.398H142.273V79.3455Z" fill="#FBF6EF"/>
<path d="M165.378 80.7322C164.704 80.7322 164.091 80.6097 163.538 80.3646C162.986 80.1085 162.511 79.7687 162.113 79.3455C161.726 78.9223 161.428 78.4378 161.218 77.892C161.008 77.3462 160.903 76.7782 160.903 76.1879C160.903 75.4862 161.019 74.8624 161.251 74.3167C161.494 73.7598 161.814 73.2697 162.212 72.8465C162.61 72.4232 163.069 72.0612 163.588 71.7605C164.118 71.4598 164.665 71.2147 165.229 71.0254C165.803 70.836 166.372 70.6968 166.936 70.6077C167.51 70.5075 168.052 70.4573 168.56 70.4573C168.67 70.4573 168.819 70.4685 169.007 70.4908C169.206 70.5019 169.411 70.5186 169.62 70.5409C169.841 70.552 170.051 70.5687 170.25 70.591C170.449 70.6021 170.604 70.6077 170.714 70.6077L170.731 68.3188C170.731 67.7731 170.698 67.322 170.631 66.9656C170.565 66.598 170.449 66.314 170.283 66.1135C170.118 65.9019 169.902 65.7571 169.637 65.6791C169.372 65.59 169.035 65.5455 168.626 65.5455C168.184 65.5455 167.715 65.6513 167.217 65.8629C166.72 66.0634 166.223 66.3084 165.726 66.598C165.24 66.8876 164.776 67.1939 164.334 67.5169C163.903 67.8288 163.527 68.0905 163.207 68.3021H162.593L161.997 64.8772C162.406 64.699 162.848 64.5263 163.323 64.3593C163.798 64.1811 164.306 64.0251 164.847 63.8915C165.4 63.7467 165.98 63.6353 166.588 63.5573C167.206 63.4682 167.858 63.4237 168.543 63.4237C169.339 63.4237 170.14 63.5128 170.946 63.691C171.764 63.8581 172.493 64.1532 173.134 64.5765C173.775 64.9886 174.294 65.5399 174.692 66.2305C175.101 66.921 175.3 67.7787 175.288 68.8034L175.206 77.1736C175.206 77.3518 175.233 77.5077 175.288 77.6414C175.355 77.775 175.443 77.892 175.554 77.9922C175.675 78.0925 175.819 78.1704 175.985 78.2261C176.15 78.2818 176.349 78.3097 176.581 78.3097C176.703 78.3097 176.902 78.2874 177.178 78.2428C177.454 78.1983 177.714 78.1482 177.957 78.0925H178.321V79.3288C178.156 79.4625 177.918 79.6072 177.609 79.7632C177.31 79.9191 176.968 80.0695 176.581 80.2143C176.206 80.3591 175.808 80.4816 175.388 80.5818C174.979 80.6821 174.587 80.7322 174.211 80.7322C173.692 80.7322 173.217 80.6821 172.786 80.5818C172.366 80.4927 172.001 80.3424 171.692 80.1307C171.383 79.9191 171.14 79.6351 170.963 79.2787C170.797 78.9223 170.714 78.4823 170.714 77.9588H170.681C170.272 78.5825 169.836 79.0838 169.372 79.4625C168.908 79.83 168.438 80.1085 167.963 80.2978C167.488 80.4872 167.03 80.6041 166.588 80.6487C166.146 80.7043 165.742 80.7322 165.378 80.7322ZM167.963 78.1092C168.206 78.1092 168.449 78.0925 168.692 78.0591C168.935 78.0145 169.179 77.9365 169.422 77.8252C169.665 77.7138 169.891 77.569 170.101 77.3908C170.322 77.2126 170.515 76.9842 170.681 76.7058L170.714 71.9777C169.941 71.9777 169.239 72.0445 168.609 72.1782C167.991 72.3007 167.46 72.5012 167.018 72.7796C166.577 73.0581 166.234 73.4145 165.991 73.8489C165.759 74.2721 165.643 74.79 165.643 75.4026C165.643 75.9261 165.715 76.3605 165.858 76.7058C166.002 77.0511 166.184 77.3295 166.405 77.5411C166.626 77.7528 166.875 77.9031 167.151 77.9922C167.427 78.0702 167.698 78.1092 167.963 78.1092Z" fill="#FBF6EF"/>
<path d="M177.907 79.3455L179.68 78.744C179.89 78.6772 180.062 78.5658 180.194 78.4099C180.338 78.254 180.41 78.0535 180.41 77.8085V66.0801H177.344L177.741 64.1254H180.426C180.448 62.6106 180.664 61.274 181.073 60.1157C181.492 58.9573 182.056 57.9828 182.763 57.1919C183.47 56.4011 184.299 55.8053 185.249 55.4043C186.199 54.9922 187.232 54.7861 188.348 54.7861C188.547 54.7861 188.79 54.7973 189.077 54.8195C189.376 54.8418 189.68 54.8864 189.989 54.9532C190.309 55.0089 190.619 55.0757 190.917 55.1537C191.226 55.2317 191.486 55.3208 191.696 55.421L191.05 58.8125H190.47C190.182 58.6677 189.856 58.5118 189.492 58.3447C189.138 58.1777 188.774 58.0329 188.398 57.9104C188.022 57.7767 187.658 57.6653 187.304 57.5762C186.95 57.4871 186.636 57.4426 186.359 57.4426C186.072 57.4426 185.84 57.5038 185.663 57.6263C185.486 57.7489 185.359 57.9605 185.282 58.2612C185.138 58.7958 185.045 59.5421 185 60.4999C184.967 61.4467 184.945 62.6552 184.934 64.1254H189.525L189.061 66.0801H184.984V77.8085C184.984 78.0646 185.05 78.2707 185.183 78.4266C185.326 78.5825 185.503 78.6884 185.713 78.744L187.801 79.3455V80.398H177.907V79.3455ZM190.155 79.3455L191.928 78.744C192.138 78.6772 192.309 78.5658 192.442 78.4099C192.585 78.254 192.657 78.0535 192.657 77.8085V66.0801H189.591L189.989 64.1254H192.674C192.696 62.6106 192.911 61.274 193.32 60.1157C193.74 58.9573 194.303 57.9828 195.011 57.1919C195.718 56.4011 196.546 55.8053 197.497 55.4043C198.447 54.9922 199.48 54.7861 200.596 54.7861C200.795 54.7861 201.038 54.7973 201.325 54.8195C201.623 54.8418 201.927 54.8864 202.236 54.9532C202.557 55.0089 202.866 55.0757 203.165 55.1537C203.474 55.2317 203.734 55.3208 203.944 55.421L203.297 58.8125H202.717C202.43 58.6677 202.104 58.5118 201.739 58.3447C201.386 58.1777 201.021 58.0329 200.645 57.9104C200.27 57.7767 199.905 57.6653 199.552 57.5762C199.198 57.4871 198.883 57.4426 198.607 57.4426C198.32 57.4426 198.088 57.5038 197.911 57.6263C197.734 57.7489 197.607 57.9605 197.53 58.2612C197.386 58.7958 197.292 59.5421 197.248 60.4999C197.215 61.4467 197.193 62.6552 197.182 64.1254H201.772L201.308 66.0801H197.231V77.8085C197.231 78.0646 197.298 78.2707 197.43 78.4266C197.574 78.5825 197.751 78.6884 197.961 78.744L200.049 79.3455V80.398H190.155V79.3455Z" fill="#FBF6EF"/>
<path d="M209.822 80.7656C208.596 80.7656 207.474 80.5818 206.458 80.2143C205.453 79.8467 204.58 79.3009 203.839 78.577C203.11 77.853 202.541 76.962 202.132 75.9038C201.735 74.8346 201.536 73.6038 201.536 72.2116C201.536 71.0421 201.729 69.9283 202.116 68.8702C202.502 67.8009 203.055 66.8653 203.773 66.0634C204.502 65.2615 205.386 64.621 206.425 64.1421C207.474 63.6631 208.657 63.4237 209.971 63.4237C211.11 63.4237 212.115 63.613 212.988 63.9917C213.861 64.3593 214.59 64.8438 215.175 65.4452C215.772 66.0467 216.225 66.7372 216.534 67.5169C216.844 68.2966 216.999 69.0874 216.999 69.8893C216.999 69.9896 216.993 70.1288 216.982 70.307C216.982 70.4852 216.976 70.669 216.965 70.8583C216.954 71.0365 216.943 71.2092 216.932 71.3762C216.921 71.5433 216.91 71.6658 216.899 71.7438H206.292C206.303 73.8043 206.745 75.3748 207.618 76.4552C208.491 77.5244 209.839 78.0591 211.662 78.0591C212.259 78.0591 212.8 78.0089 213.286 77.9087C213.772 77.7973 214.214 77.6637 214.612 77.5077C215.01 77.3518 215.363 77.1847 215.673 77.0065C215.993 76.8283 216.275 76.6724 216.518 76.5387H216.965V77.9421C216.59 78.2651 216.142 78.5937 215.623 78.9278C215.104 79.262 214.54 79.5683 213.932 79.8467C213.325 80.114 212.673 80.3312 211.977 80.4983C211.281 80.6765 210.563 80.7656 209.822 80.7656ZM212.325 70.1733C212.325 69.4605 212.286 68.8034 212.209 68.2019C212.132 67.5893 211.988 67.0658 211.778 66.6314C211.579 66.1859 211.303 65.8406 210.949 65.5956C210.607 65.3394 210.176 65.2113 209.657 65.2113C209.148 65.2113 208.695 65.3283 208.298 65.5622C207.9 65.7849 207.563 66.1079 207.287 66.5312C207.021 66.9544 206.812 67.4779 206.657 68.1017C206.502 68.7142 206.403 69.4048 206.359 70.1733H212.325Z" fill="#FBF6EF"/>
<path d="M1.3988 38.0204L4.00798 37.1267C4.32885 37.0245 4.58217 36.8543 4.76794 36.6159C4.97059 36.3606 5.07192 36.0456 5.07192 35.6711V19.813C5.07192 19.3874 4.9537 19.0384 4.71727 18.766C4.49773 18.4936 4.13464 18.2638 3.628 18.0765L1.3988 17.2338V15.8293L11.8862 13.8885V18.051H11.9368C12.6124 17.1146 13.2794 16.3655 13.9381 15.8037C14.6136 15.2249 15.2806 14.7738 15.9393 14.4503C16.6148 14.1269 17.2734 13.9141 17.9152 13.8119C18.5569 13.7098 19.1902 13.6587 19.815 13.6587C20.6425 13.6587 21.4278 13.7523 22.1709 13.9396C22.9309 14.1269 23.6233 14.4163 24.2481 14.8078C24.873 15.1994 25.4218 15.7016 25.8947 16.3145C26.3675 16.9273 26.7391 17.6679 27.0093 18.5361C27.8368 17.3785 28.6221 16.4762 29.3651 15.8293C30.1082 15.1824 30.8259 14.7057 31.5183 14.3992C32.2107 14.0758 32.8778 13.8715 33.5196 13.7864C34.1613 13.7012 34.7862 13.6587 35.3941 13.6587C36.4749 13.6587 37.4882 13.8289 38.4339 14.1694C39.3797 14.5099 40.2072 15.0377 40.9165 15.7527C41.6257 16.4677 42.1746 17.387 42.563 18.5106C42.9683 19.6342 43.171 20.9791 43.171 22.5454V35.6966C43.171 36.0711 43.2723 36.3691 43.475 36.5904C43.6776 36.7947 43.9478 36.9649 44.2856 37.1011L46.5654 37.9949V39.6037H32.8103V38.0204L35.1155 37.1267C35.4363 37.0075 35.6897 36.8287 35.8754 36.5904C36.0781 36.352 36.1794 36.0371 36.1794 35.6455V24.9969C36.1794 23.8562 36.1287 22.8518 36.0274 21.9836C35.943 21.1153 35.7572 20.3918 35.4701 19.813C35.183 19.2341 34.7693 18.7915 34.2289 18.4851C33.7053 18.1786 33.0045 18.0254 32.1263 18.0254C31.7717 18.0254 31.3832 18.0424 30.961 18.0765C30.5557 18.1105 30.1504 18.2042 29.7451 18.3574C29.3398 18.5106 28.9429 18.7319 28.5545 19.0213C28.183 19.2937 27.8621 19.6768 27.5919 20.1705V35.6966C27.5919 36.0882 27.6932 36.3861 27.8959 36.5904C28.1154 36.7777 28.3856 36.9479 28.7065 37.1011L30.6824 37.9949V39.6037H17.3072V38.0204L19.5871 37.1267C19.9079 37.0075 20.1612 36.8372 20.347 36.6159C20.5497 36.3776 20.651 36.0711 20.651 35.6966V24.9969C20.651 23.8562 20.6003 22.8518 20.499 21.9836C20.4146 21.1153 20.2288 20.3918 19.9417 19.813C19.6546 19.2341 19.2409 18.7915 18.7004 18.4851C18.16 18.1786 17.4507 18.0254 16.5726 18.0254C16.1841 18.0254 15.7788 18.0424 15.3566 18.0765C14.9513 18.1105 14.546 18.2042 14.1407 18.3574C13.7523 18.4936 13.3723 18.7064 13.0008 18.9958C12.6461 19.2682 12.3337 19.6427 12.0635 20.1194V35.6711C12.0635 36.0626 12.1648 36.3691 12.3675 36.5904C12.587 36.7947 12.8572 36.9649 13.1781 37.1011L15.154 37.9949V39.6037H1.3988V38.0204Z" fill="#FBF6EF"/>
<path d="M54.2164 40.1144C53.1862 40.1144 52.2489 39.9271 51.4045 39.5526C50.5601 39.161 49.834 38.6418 49.226 37.9949C48.6349 37.348 48.1789 36.6074 47.8581 35.7732C47.5372 34.939 47.3768 34.0708 47.3768 33.1685C47.3768 32.096 47.5541 31.1426 47.9087 30.3084C48.2803 29.4572 48.77 28.7081 49.378 28.0612C49.986 27.4143 50.6868 26.861 51.4805 26.4014C52.2911 25.9417 53.1271 25.5672 53.9884 25.2778C54.8666 24.9883 55.7363 24.7755 56.5976 24.6393C57.4757 24.4861 58.3032 24.4095 59.0801 24.4095C59.249 24.4095 59.4769 24.4265 59.764 24.4606C60.068 24.4776 60.3804 24.5032 60.7013 24.5372C61.0391 24.5542 61.3599 24.5798 61.6639 24.6138C61.9679 24.6308 62.2043 24.6393 62.3732 24.6393L62.3985 21.1409C62.3985 20.3067 62.3479 19.6172 62.2466 19.0724C62.1452 18.5106 61.9679 18.0765 61.7146 17.77C61.4613 17.4466 61.132 17.2253 60.7266 17.1061C60.3213 16.9699 59.8063 16.9018 59.1814 16.9018C58.5059 16.9018 57.7882 17.0635 57.0282 17.387C56.2682 17.6934 55.5083 18.068 54.7483 18.5106C54.0053 18.9532 53.296 19.4214 52.6205 19.9151C51.9618 20.3918 51.3876 20.7919 50.8979 21.1153H49.9606L49.0487 15.8804C49.6735 15.608 50.349 15.3441 51.0752 15.0887C51.8014 14.8163 52.5782 14.578 53.4057 14.3737C54.2501 14.1524 55.1368 13.9821 56.0656 13.863C57.0113 13.7268 58.0077 13.6587 59.0547 13.6587C60.2707 13.6587 61.495 13.7949 62.7279 14.0673C63.9776 14.3226 65.0922 14.7738 66.0717 15.4207C67.0512 16.0506 67.8449 16.8933 68.4529 17.9488C69.0777 19.0043 69.3817 20.3152 69.3648 21.8814L69.2381 34.6752C69.2381 34.9475 69.2804 35.1859 69.3648 35.3902C69.4661 35.5945 69.6012 35.7732 69.7701 35.9264C69.9559 36.0797 70.1754 36.1988 70.4287 36.2839C70.6821 36.3691 70.986 36.4116 71.3407 36.4116C71.5264 36.4116 71.8304 36.3776 72.2526 36.3095C72.6748 36.2414 73.0717 36.1648 73.4432 36.0797H74.0005V37.9694C73.7472 38.1736 73.3841 38.395 72.9113 38.6333C72.4553 38.8716 71.9318 39.1015 71.3407 39.3228C70.7665 39.5441 70.1585 39.7314 69.5168 39.8846C68.8919 40.0378 68.2924 40.1144 67.7182 40.1144C66.9245 40.1144 66.1983 40.0378 65.5397 39.8846C64.8979 39.7484 64.3406 39.5186 63.8678 39.1951C63.3949 38.8716 63.0234 38.4375 62.7532 37.8927C62.4999 37.348 62.3732 36.6755 62.3732 35.8754H62.3225C61.6977 36.8287 61.0306 37.5948 60.3213 38.1736C59.612 38.7354 58.8943 39.161 58.1681 39.4505C57.4419 39.7399 56.7411 39.9186 56.0656 39.9867C55.3901 40.0718 54.7737 40.1144 54.2164 40.1144ZM58.1681 36.1052C58.5397 36.1052 58.9112 36.0797 59.2827 36.0286C59.6543 35.9605 60.0258 35.8413 60.3973 35.6711C60.7689 35.5008 61.1151 35.2795 61.4359 35.0071C61.7737 34.7347 62.0692 34.3857 62.3225 33.9601L62.3732 26.7333C61.1911 26.7333 60.1187 26.8355 59.1561 27.0398C58.2104 27.227 57.3997 27.5335 56.7242 27.9591C56.0487 28.3847 55.5252 28.9295 55.1536 29.5934C54.799 30.2403 54.6217 31.032 54.6217 31.9683C54.6217 32.7684 54.7314 33.4324 54.951 33.9601C55.1705 34.4879 55.4492 34.9135 55.7869 35.237C56.1247 35.5604 56.5047 35.7902 56.9269 35.9264C57.3491 36.0456 57.7628 36.1052 58.1681 36.1052Z" fill="#FBF6EF"/>
<path d="M80.4601 9.16428C79.869 9.16428 79.3117 9.05362 78.7882 8.8323C78.2647 8.61099 77.8003 8.32158 77.395 7.96406C77.0065 7.58953 76.6941 7.1469 76.4577 6.63617C76.2381 6.12544 76.1283 5.57215 76.1283 4.9763C76.1283 4.4145 76.2381 3.88675 76.4577 3.39305C76.6941 2.88232 77.0065 2.4482 77.395 2.09069C77.7834 1.71616 78.2393 1.42674 78.7629 1.22245C79.2864 1.01816 79.8521 0.916016 80.4601 0.916016C81.085 0.916016 81.6591 1.01816 82.1827 1.22245C82.7231 1.42674 83.1959 1.70764 83.6012 2.06515C84.0066 2.42266 84.319 2.84827 84.5385 3.34197C84.7749 3.83568 84.8932 4.37194 84.8932 4.95077C84.8932 5.54662 84.7749 6.09991 84.5385 6.61064C84.3021 7.12137 83.9812 7.564 83.5759 7.93853C83.1706 8.31306 82.6977 8.61099 82.1573 8.8323C81.6338 9.05362 81.0681 9.16428 80.4601 9.16428ZM72.3539 51.3249C72.033 51.3249 71.6531 51.2994 71.214 51.2483C70.758 51.2142 70.2851 51.1547 69.7954 51.0695C69.3056 50.9844 68.8328 50.8823 68.3768 50.7631C67.904 50.6439 67.5071 50.4992 67.1862 50.329L68.1742 45.1451H69.0608C69.483 45.3834 69.9727 45.6218 70.53 45.8601C71.0873 46.1155 71.6531 46.3453 72.2273 46.5496C72.8183 46.7539 73.3841 46.9241 73.9245 47.0603C74.4818 47.1965 74.9631 47.2646 75.3684 47.2646C75.8075 47.2646 76.1621 47.171 76.4323 46.9837C76.7025 46.7964 76.9052 46.473 77.0403 46.0133C77.1416 45.6218 77.2176 45.1195 77.2683 44.5067C77.3358 43.8938 77.3865 43.1958 77.4203 42.4127C77.4709 41.6296 77.4963 40.7528 77.4963 39.7824C77.5132 38.8291 77.5216 37.7906 77.5216 36.667V19.9151C77.5216 19.4384 77.4034 19.0639 77.167 18.7915C76.9474 18.5191 76.5674 18.2978 76.027 18.1276L73.2912 17.2338V15.8293L84.5132 14.0162V36.8713C84.5132 39.1525 84.2008 41.1869 83.5759 42.9745C82.9511 44.7791 82.0898 46.2942 80.9921 47.52C79.9112 48.7627 78.6278 49.7076 77.1416 50.3545C75.6555 51.0014 74.0596 51.3249 72.3539 51.3249Z" fill="#FBF6EF"/>
<path d="M101.206 40.2932C99.2298 40.2932 97.4481 39.9867 95.8607 39.3739C94.2901 38.744 92.9475 37.8587 91.8329 36.7181C90.7352 35.5604 89.8823 34.1644 89.2744 32.5301C88.6833 30.8958 88.3878 29.0657 88.3878 27.0398C88.3878 25.1671 88.6833 23.4221 89.2744 21.8048C89.8655 20.1705 90.7183 18.7489 91.8329 17.5402C92.9644 16.3315 94.3408 15.3867 95.962 14.7057C97.5832 14.0077 99.4325 13.6587 101.51 13.6587C103.739 13.6587 105.664 14.0247 107.285 14.7568C108.907 15.4888 110.232 16.4677 111.262 17.6934C112.309 18.9022 113.086 20.3152 113.593 21.9325C114.1 23.5328 114.353 25.2011 114.353 26.9376C114.353 28.7762 114.057 30.5127 113.466 32.1471C112.892 33.7644 112.039 35.1774 110.908 36.3861C109.793 37.5948 108.417 38.5482 106.779 39.2462C105.157 39.9442 103.3 40.2932 101.206 40.2932ZM101.56 37.5352C102.658 37.5352 103.545 37.2118 104.22 36.5648C104.913 35.9179 105.453 35.1008 105.841 34.1134C106.23 33.1259 106.492 32.0364 106.627 30.8447C106.762 29.653 106.829 28.5124 106.829 27.4228C106.829 26.0609 106.736 24.7245 106.551 23.4136C106.365 22.1027 106.053 20.9281 105.613 19.8896C105.174 18.8511 104.592 18.0169 103.866 17.387C103.156 16.7401 102.261 16.4166 101.18 16.4166C100.1 16.4166 99.2129 16.7316 98.5205 17.3615C97.845 17.9914 97.313 18.8 96.9246 19.7874C96.5531 20.7748 96.2913 21.8644 96.1393 23.0561C96.0042 24.2308 95.9367 25.3629 95.9367 26.4524C95.9367 27.6611 96.0127 28.9209 96.1646 30.2318C96.3166 31.5427 96.5953 32.7429 97.0006 33.8325C97.4228 34.905 97.997 35.7902 98.7232 36.4882C99.4493 37.1862 100.395 37.5352 101.56 37.5352Z" fill="#FBF6EF"/>
<path d="M115.689 37.9949L118.349 37.1011C118.653 36.999 118.914 36.8287 119.134 36.5904C119.353 36.352 119.463 36.0456 119.463 35.6711V20.0428C119.463 19.7874 119.438 19.5576 119.387 19.3533C119.337 19.149 119.252 18.9703 119.134 18.817C119.016 18.6638 118.864 18.5276 118.678 18.4085C118.509 18.2723 118.281 18.1531 117.994 18.051L115.486 17.1827V15.8037L126.151 13.8885V19.5065H126.201C126.641 18.7745 127.105 18.0595 127.595 17.3615C128.084 16.6635 128.625 16.0421 129.216 15.4973C129.824 14.9525 130.491 14.5099 131.217 14.1694C131.943 13.8289 132.771 13.6587 133.7 13.6587C134.173 13.6587 134.595 13.6842 134.966 13.7353C135.338 13.7693 135.676 13.8289 135.98 13.914C136.3 13.9821 136.604 14.0758 136.891 14.1949C137.179 14.2971 137.474 14.4078 137.778 14.5269V22.29H135.194L134.156 20.3748C134.088 20.2215 133.953 20.0768 133.75 19.9406C133.565 19.8045 133.353 19.6853 133.117 19.5831C132.881 19.464 132.627 19.3788 132.357 19.3278C132.087 19.2597 131.825 19.2256 131.572 19.2256C131.082 19.2256 130.618 19.2597 130.179 19.3278C129.739 19.3788 129.309 19.4895 128.887 19.6597C128.464 19.83 128.051 20.0683 127.645 20.3748C127.257 20.6812 126.86 21.0898 126.455 21.6005V35.6711C126.455 36.0626 126.556 36.3776 126.759 36.6159C126.961 36.8543 127.232 37.016 127.569 37.1011L130.761 37.9949V39.6037H115.689V37.9949Z" fill="#FBF6EF"/>
<path d="M138.739 37.9949L141.349 37.1011C141.669 36.9819 141.931 36.8117 142.134 36.5904C142.353 36.352 142.463 36.0456 142.463 35.6711V19.813C142.463 19.3874 142.345 19.0298 142.109 18.7404C141.872 18.451 141.492 18.2127 140.969 18.0254L138.739 17.1827V15.8037L149.277 13.8885V18.051H149.328C150.004 17.0976 150.679 16.3315 151.355 15.7527C152.047 15.1738 152.731 14.7312 153.407 14.4248C154.099 14.1183 154.775 13.9141 155.433 13.8119C156.092 13.7098 156.75 13.6587 157.409 13.6587C158.54 13.6587 159.588 13.8289 160.55 14.1694C161.53 14.5099 162.382 15.0377 163.109 15.7527C163.835 16.4677 164.401 17.387 164.806 18.5106C165.211 19.6342 165.414 20.9791 165.414 22.5454V35.5689C165.414 35.9945 165.524 36.3265 165.743 36.5648C165.963 36.8032 166.224 36.9819 166.528 37.1011L168.808 37.9949V39.6037H155.028V37.9949L157.333 37.1011C157.62 36.9819 157.873 36.8032 158.093 36.5648C158.312 36.3265 158.422 35.9945 158.422 35.5689V24.9969C158.422 23.8562 158.372 22.8518 158.27 21.9836C158.169 21.1153 157.966 20.3918 157.662 19.813C157.358 19.2341 156.928 18.7915 156.37 18.4851C155.813 18.1786 155.07 18.0254 154.141 18.0254C153.753 18.0254 153.339 18.0424 152.9 18.0765C152.478 18.1105 152.056 18.2042 151.633 18.3574C151.228 18.4936 150.831 18.7064 150.443 18.9958C150.071 19.2682 149.742 19.6427 149.455 20.1194V35.6711C149.455 36.0626 149.565 36.3606 149.784 36.5648C150.004 36.7691 150.265 36.9479 150.569 37.1011L152.571 37.9949V39.6037H138.739V37.9949Z" fill="#FBF6EF"/>
<path d="M176.468 40.1144C175.438 40.1144 174.501 39.9271 173.656 39.5526C172.812 39.161 172.086 38.6418 171.478 37.9949C170.887 37.348 170.431 36.6074 170.11 35.7732C169.789 34.939 169.628 34.0708 169.628 33.1685C169.628 32.096 169.806 31.1426 170.16 30.3084C170.532 29.4572 171.022 28.7081 171.63 28.0612C172.238 27.4143 172.938 26.861 173.732 26.4014C174.543 25.9417 175.379 25.5672 176.24 25.2778C177.118 24.9883 177.988 24.7755 178.849 24.6393C179.727 24.4861 180.555 24.4095 181.332 24.4095C181.501 24.4095 181.729 24.4265 182.016 24.4606C182.32 24.4776 182.632 24.5032 182.953 24.5372C183.291 24.5542 183.612 24.5798 183.915 24.6138C184.219 24.6308 184.456 24.6393 184.625 24.6393L184.65 21.1409C184.65 20.3067 184.599 19.6172 184.498 19.0724C184.397 18.5106 184.219 18.0765 183.966 17.77C183.713 17.4466 183.384 17.2253 182.978 17.1061C182.573 16.9699 182.058 16.9018 181.433 16.9018C180.757 16.9018 180.04 17.0635 179.28 17.387C178.52 17.6934 177.76 18.068 177 18.5106C176.257 18.9532 175.548 19.4214 174.872 19.9151C174.213 20.3918 173.639 20.7919 173.149 21.1153H172.212L171.3 15.8804C171.925 15.608 172.601 15.3441 173.327 15.0887C174.053 14.8163 174.83 14.578 175.657 14.3737C176.502 14.1524 177.388 13.9821 178.317 13.863C179.263 13.7268 180.259 13.6587 181.306 13.6587C182.522 13.6587 183.747 13.7949 184.979 14.0673C186.229 14.3226 187.344 14.7738 188.323 15.4207C189.303 16.0506 190.096 16.8933 190.704 17.9488C191.329 19.0043 191.633 20.3152 191.616 21.8814L191.49 34.6752C191.49 34.9475 191.532 35.1859 191.616 35.3902C191.718 35.5945 191.853 35.7732 192.022 35.9264C192.207 36.0797 192.427 36.1988 192.68 36.2839C192.934 36.3691 193.238 36.4116 193.592 36.4116C193.778 36.4116 194.082 36.3776 194.504 36.3095C194.926 36.2414 195.323 36.1648 195.695 36.0797H196.252V37.9694C195.999 38.1736 195.636 38.395 195.163 38.6333C194.707 38.8716 194.183 39.1015 193.592 39.3228C193.018 39.5441 192.41 39.7314 191.768 39.8846C191.144 40.0378 190.544 40.1144 189.97 40.1144C189.176 40.1144 188.45 40.0378 187.791 39.8846C187.15 39.7484 186.592 39.5186 186.119 39.1951C185.647 38.8716 185.275 38.4375 185.005 37.8927C184.751 37.348 184.625 36.6755 184.625 35.8754H184.574C183.949 36.8287 183.282 37.5948 182.573 38.1736C181.864 38.7354 181.146 39.161 180.42 39.4505C179.694 39.7399 178.993 39.9186 178.317 39.9867C177.642 40.0718 177.025 40.1144 176.468 40.1144ZM180.42 36.1052C180.791 36.1052 181.163 36.0797 181.534 36.0286C181.906 35.9605 182.277 35.8413 182.649 35.6711C183.02 35.5008 183.367 35.2795 183.688 35.0071C184.025 34.7347 184.321 34.3857 184.574 33.9601L184.625 26.7333C183.443 26.7333 182.37 26.8355 181.408 27.0398C180.462 27.227 179.651 27.5335 178.976 27.9591C178.3 28.3847 177.777 28.9295 177.405 29.5934C177.051 30.2403 176.873 31.032 176.873 31.9683C176.873 32.7684 176.983 33.4324 177.203 33.9601C177.422 34.4879 177.701 34.9135 178.039 35.237C178.376 35.5604 178.756 35.7902 179.178 35.9264C179.601 36.0456 180.014 36.1052 180.42 36.1052Z" fill="#FBF6EF"/>
<path d="M205.574 40.3442C204.544 40.3442 203.59 40.2847 202.712 40.1655C201.85 40.0633 201.04 39.9186 200.28 39.7314C199.537 39.5611 198.844 39.3824 198.203 39.1951C197.561 38.9908 196.944 38.8035 196.353 38.6333V31.2788H198.709L199.647 34.0367C199.714 34.241 199.807 34.4283 199.925 34.5985C200.06 34.7688 200.212 34.9305 200.381 35.0837C200.55 35.2199 200.719 35.3476 200.888 35.4668C201.057 35.5689 201.226 35.6626 201.394 35.7477C201.682 35.9179 202.045 36.0967 202.484 36.2839C202.94 36.4712 203.421 36.6415 203.928 36.7947C204.434 36.9479 204.949 37.0756 205.473 37.1777C206.013 37.2799 206.528 37.3309 207.018 37.3309C207.559 37.3309 208.057 37.2714 208.513 37.1522C208.986 37.016 209.391 36.8032 209.729 36.5138C210.066 36.2244 210.328 35.8498 210.514 35.3902C210.717 34.9305 210.818 34.3602 210.818 33.6792C210.818 33.1004 210.691 32.6237 210.438 32.2492C210.185 31.8747 209.838 31.5512 209.399 31.2788C208.977 30.9894 208.496 30.7596 207.955 30.5893C207.415 30.4021 206.858 30.2233 206.283 30.0531C205.439 29.8147 204.688 29.6019 204.029 29.4147C203.37 29.2274 202.712 29.0316 202.053 28.8273C201.209 28.5549 200.457 28.2059 199.799 27.7803C199.14 27.3377 198.574 26.8184 198.101 26.2226C197.645 25.6267 197.299 24.9458 197.063 24.1797C196.826 23.3966 196.708 22.5539 196.708 21.6516C196.708 20.4599 196.995 19.3703 197.569 18.3829C198.144 17.3955 198.929 16.5528 199.925 15.8548C200.922 15.1398 202.087 14.5865 203.421 14.1949C204.772 13.8034 206.207 13.6076 207.727 13.6076C208.656 13.6076 209.475 13.6417 210.185 13.7098C210.911 13.7608 211.578 13.8374 212.186 13.9396C212.811 14.0247 213.393 14.1354 213.934 14.2716C214.491 14.3907 215.065 14.5184 215.656 14.6546L216.011 22.0091H213.579L212.515 19.2767C212.38 18.9362 212.169 18.6298 211.882 18.3574C211.595 18.085 211.282 17.8637 210.945 17.6934C210.657 17.5402 210.337 17.3955 209.982 17.2593C209.644 17.1231 209.273 17.004 208.867 16.9018C208.462 16.7826 208.048 16.689 207.626 16.6209C207.221 16.5528 206.815 16.5188 206.41 16.5188C206.072 16.5188 205.709 16.5869 205.321 16.7231C204.932 16.8422 204.578 17.0295 204.257 17.2849C203.936 17.5402 203.666 17.8722 203.446 18.2808C203.244 18.6894 203.142 19.1831 203.142 19.7619C203.142 20.3577 203.244 20.8685 203.446 21.2941C203.649 21.7027 203.928 22.0517 204.282 22.3411C204.637 22.6135 205.034 22.8433 205.473 23.0306C205.929 23.2178 206.402 23.3795 206.891 23.5157C207.635 23.7541 208.344 23.9839 209.019 24.2052C209.712 24.4265 210.303 24.6138 210.793 24.767C211.738 25.0564 212.6 25.4054 213.376 25.814C214.17 26.2056 214.846 26.6737 215.403 27.2185C215.977 27.7633 216.416 28.4017 216.72 29.1338C217.041 29.8488 217.201 30.6915 217.201 31.6619C217.201 33.16 216.872 34.4623 216.214 35.5689C215.572 36.6585 214.711 37.5608 213.63 38.2758C212.549 38.9738 211.308 39.493 209.906 39.8335C208.504 40.174 207.06 40.3442 205.574 40.3442Z" fill="#FBF6EF"/>
<path fill-rule="evenodd" clip-rule="evenodd" d="M63.3987 49.3715H0.132446V47.0732H63.3987V49.3715Z" fill="#FBF6EF"/>
<path fill-rule="evenodd" clip-rule="evenodd" d="M219 49.3715L85.6279 49.3715L85.6279 47.0732L219 47.0733L219 49.3715Z" fill="#FBF6EF"/>
</svg>
