<svg width="147" height="54" viewBox="0 0 147 54" fill="none" xmlns="http://www.w3.org/2000/svg">
<path d="M6.50822 53.6236C6.13189 53.6236 5.75188 53.6089 5.36817 53.5794C4.98447 53.5498 4.59339 53.4945 4.19492 53.4133C3.79646 53.3395 3.39062 53.2399 2.9774 53.1145C2.56418 52.9817 2.15096 52.812 1.73774 52.6053V39.1462C1.73774 38.9543 1.68978 38.7994 1.59385 38.6813C1.49792 38.5559 1.32821 38.4489 1.0847 38.3603L0 37.9619V37.3642L4.79262 36.534V43.1419L4.77048 44.0052C5.07302 43.5625 5.38662 43.2157 5.71129 42.9648C6.04334 42.7065 6.36433 42.5147 6.67424 42.3892C6.98416 42.2564 7.27563 42.1715 7.54865 42.1346C7.82905 42.0977 8.06517 42.0793 8.25702 42.0793C8.92113 42.0793 9.51513 42.2121 10.039 42.4778C10.5629 42.7434 11.0057 43.1123 11.3672 43.5846C11.7362 44.0569 12.0166 44.6213 12.2084 45.2781C12.4003 45.9348 12.4962 46.6542 12.4962 47.4364C12.4962 48.2924 12.3597 49.0967 12.0867 49.8493C11.821 50.602 11.43 51.2587 10.9134 51.8195C10.3969 52.3803 9.76971 52.823 9.03181 53.1477C8.29392 53.465 7.45272 53.6236 6.50822 53.6236ZM6.57463 52.4172C7.05426 52.4172 7.46379 52.3028 7.80322 52.0741C8.15003 51.8379 8.43412 51.528 8.65549 51.1443C8.87685 50.7532 9.03919 50.3068 9.1425 49.805C9.2458 49.2959 9.29745 48.7609 9.29745 48.2001C9.29745 47.5655 9.24949 46.9863 9.15356 46.4624C9.05764 45.9385 8.90268 45.4921 8.68869 45.1231C8.48208 44.7468 8.21275 44.459 7.8807 44.2598C7.55603 44.0532 7.16125 43.9499 6.69638 43.9499C6.55618 43.9499 6.39753 43.9572 6.22044 43.972C6.05072 43.9868 5.87732 44.0236 5.70022 44.0827C5.53051 44.1343 5.36448 44.2229 5.20215 44.3483C5.03981 44.4664 4.9033 44.625 4.79262 44.8243V51.5649C4.87378 51.6682 4.98447 51.7715 5.12467 51.8748C5.26487 51.9708 5.41614 52.0593 5.57847 52.1405C5.74819 52.2216 5.9179 52.2881 6.08762 52.3397C6.26471 52.3914 6.42705 52.4172 6.57463 52.4172Z" fill="#1E1F22"/>
<path d="M18.7552 53.6236C17.8919 53.6236 17.1134 53.4908 16.4198 53.2252C15.7335 52.9522 15.1469 52.5685 14.6599 52.0741C14.1803 51.5723 13.8076 50.9672 13.542 50.2588C13.2837 49.5505 13.1546 48.7572 13.1546 47.8791C13.1546 47.0675 13.2837 46.3111 13.542 45.6101C13.8002 44.9017 14.1729 44.2856 14.6599 43.7617C15.1543 43.2378 15.7557 42.8283 16.464 42.5331C17.1724 42.2306 17.9804 42.0793 18.888 42.0793C19.862 42.0793 20.7032 42.2379 21.4116 42.5552C22.12 42.8725 22.6992 43.2968 23.1493 43.8281C23.6068 44.352 23.9463 44.9645 24.1676 45.6655C24.389 46.3591 24.4997 47.0822 24.4997 47.8349C24.4997 48.6318 24.3706 49.3844 24.1123 50.0928C23.8614 50.7938 23.4888 51.4063 22.9944 51.9302C22.5074 52.4541 21.906 52.8673 21.1902 53.1698C20.4819 53.4724 19.6702 53.6236 18.7552 53.6236ZM18.9101 52.4283C19.3898 52.4283 19.7772 52.2881 20.0723 52.0077C20.3749 51.7273 20.611 51.3731 20.7807 50.9451C20.9504 50.5171 21.0648 50.0449 21.1238 49.5283C21.1829 49.0118 21.2124 48.5174 21.2124 48.0452C21.2124 47.4548 21.1718 46.8756 21.0906 46.3074C21.0095 45.7392 20.8729 45.2301 20.6811 44.78C20.4892 44.3299 20.2347 43.9683 19.9174 43.6953C19.6075 43.4149 19.2164 43.2747 18.7441 43.2747C18.2719 43.2747 17.8845 43.4112 17.5819 43.6842C17.2868 43.9572 17.0543 44.3077 16.8846 44.7357C16.7223 45.1637 16.6079 45.6359 16.5415 46.1525C16.4825 46.6616 16.453 47.1523 16.453 47.6246C16.453 48.1485 16.4862 48.6945 16.5526 49.2627C16.619 49.8309 16.7407 50.3511 16.9178 50.8233C17.1023 51.2882 17.3532 51.6719 17.6705 51.9744C17.9878 52.277 18.401 52.4283 18.9101 52.4283ZM21.312 40.6957C21.098 40.6957 20.8988 40.6589 20.7143 40.5851C20.5372 40.5039 20.3786 40.3969 20.2384 40.2641C20.1055 40.1313 19.9985 39.9763 19.9174 39.7992C19.8436 39.6147 19.8067 39.4155 19.8067 39.2015C19.8067 38.9875 19.8436 38.7883 19.9174 38.6038C19.9985 38.4193 20.1055 38.2607 20.2384 38.1279C20.3786 37.9951 20.5372 37.8918 20.7143 37.818C20.8988 37.7368 21.098 37.6962 21.312 37.6962C21.526 37.6962 21.7252 37.7368 21.9097 37.818C22.1015 37.8918 22.2676 37.9951 22.4078 38.1279C22.5553 38.2533 22.666 38.4083 22.7398 38.5928C22.821 38.7772 22.8616 38.9765 22.8616 39.1904C22.8616 39.4044 22.821 39.6037 22.7398 39.7881C22.666 39.9726 22.5553 40.1313 22.4078 40.2641C22.2676 40.3969 22.1015 40.5039 21.9097 40.5851C21.7252 40.6589 21.526 40.6957 21.312 40.6957ZM16.2869 40.6957C16.0729 40.6957 15.8737 40.6589 15.6892 40.5851C15.5121 40.5039 15.3535 40.3969 15.2133 40.2641C15.0805 40.1313 14.9735 39.9763 14.8923 39.7992C14.8185 39.6147 14.7816 39.4155 14.7816 39.2015C14.7816 38.9875 14.8185 38.7883 14.8923 38.6038C14.9735 38.4193 15.0805 38.2607 15.2133 38.1279C15.3535 37.9951 15.5121 37.8918 15.6892 37.818C15.8737 37.7368 16.0729 37.6962 16.2869 37.6962C16.5009 37.6962 16.7002 37.7368 16.8846 37.818C17.0765 37.8918 17.2425 37.9951 17.3827 38.1279C17.5303 38.2533 17.641 38.4083 17.7148 38.5928C17.7959 38.7772 17.8365 38.9765 17.8365 39.1904C17.8365 39.4044 17.7959 39.6037 17.7148 39.7881C17.641 39.9726 17.5303 40.1313 17.3827 40.2641C17.2425 40.3969 17.0765 40.5039 16.8846 40.5851C16.7002 40.6589 16.5009 40.6957 16.2869 40.6957Z" fill="#1E1F22"/>
<path d="M30.1305 53.5683C29.3262 53.5683 28.6142 53.4281 27.9943 53.1477C27.3819 52.8599 26.8654 52.4688 26.4448 51.9744C26.0242 51.4801 25.7032 50.9082 25.4818 50.2588C25.2678 49.6021 25.1608 48.9048 25.1608 48.1669C25.1608 47.6283 25.2199 47.1044 25.3379 46.5952C25.456 46.0861 25.6331 45.6101 25.8692 45.1674C26.1053 44.7173 26.3931 44.3077 26.7325 43.9388C27.0794 43.5625 27.4778 43.2415 27.9279 42.9758C28.3854 42.7102 28.8946 42.5036 29.4554 42.356C30.0162 42.201 30.6286 42.1236 31.2927 42.1236C31.6912 42.1236 32.0528 42.1531 32.3774 42.2121C32.7095 42.2711 33.0046 42.3449 33.2629 42.4335C33.5212 42.522 33.7462 42.6143 33.9381 42.7102C34.1373 42.8061 34.307 42.891 34.4472 42.9648L34.0488 45.2781H33.6171C33.3441 45.0788 33.0526 44.8796 32.7427 44.6804C32.4328 44.4811 32.1192 44.304 31.8019 44.1491C31.492 43.9868 31.182 43.8576 30.8721 43.7617C30.5696 43.6584 30.2855 43.6067 30.0199 43.6067C29.8501 43.6067 29.6915 43.6584 29.5439 43.7617C29.4037 43.865 29.2451 44.0347 29.068 44.2708C28.9794 44.3815 28.8909 44.5365 28.8023 44.7357C28.7212 44.9349 28.6474 45.1711 28.581 45.4441C28.5146 45.7171 28.4592 46.0233 28.4149 46.3628C28.3707 46.7022 28.3485 47.0711 28.3485 47.4696C28.3485 48.1558 28.4113 48.7646 28.5367 49.2959C28.6621 49.8272 28.8577 50.2773 29.1233 50.6462C29.389 51.0078 29.7284 51.2845 30.1416 51.4764C30.5622 51.6608 31.064 51.7531 31.6469 51.7531C31.9421 51.7531 32.2225 51.7199 32.4881 51.6535C32.7538 51.5871 32.9973 51.5022 33.2186 51.3989C33.4474 51.2956 33.654 51.1849 33.8385 51.0668C34.0303 50.9488 34.2 50.8455 34.3476 50.7569H34.6465V51.6977C34.4029 51.9191 34.1189 52.1405 33.7942 52.3618C33.4769 52.5832 33.1264 52.7861 32.7427 52.9706C32.3664 53.1477 31.9568 53.2916 31.5141 53.4023C31.0787 53.513 30.6176 53.5683 30.1305 53.5683Z" fill="#1E1F22"/>
<path d="M34.7988 52.6275L35.9167 52.2401C36.0865 52.1811 36.2082 52.0999 36.282 51.9966C36.3632 51.8933 36.4038 51.7678 36.4038 51.6203V39.0687C36.4038 38.8842 36.3558 38.7477 36.2599 38.6592C36.1639 38.5706 35.9979 38.4821 35.7618 38.3935L34.6771 37.9619V37.3642L39.4697 36.534V47.8349L43.5097 43.6178L42.2368 43.0976V42.4003H46.9298V43.0976L45.7123 43.5071C45.5573 43.5588 45.3987 43.6399 45.2363 43.7506C45.0814 43.8613 44.9523 43.9683 44.8489 44.0716L42.5467 46.1967L46.155 51.7863C46.2436 51.9191 46.3579 52.0335 46.4981 52.1294C46.6383 52.2179 46.797 52.2917 46.9741 52.3508L47.7821 52.6275V53.3248H42.1593V52.6275L43.0448 52.2401L40.4769 48.0562L39.4586 48.7314V51.6203C39.4586 51.79 39.5029 51.9191 39.5915 52.0077C39.68 52.0962 39.7981 52.1737 39.9456 52.2401L40.8311 52.6275V53.3248H34.7988V52.6275Z" fill="#1E1F22"/>
<path d="M52.689 53.5683C51.8699 53.5683 51.1209 53.4465 50.4421 53.203C49.7706 52.9595 49.1877 52.598 48.6933 52.1183C48.2063 51.6387 47.8262 51.0484 47.5532 50.3474C47.2876 49.639 47.1548 48.8236 47.1548 47.9013C47.1548 47.1265 47.2839 46.3886 47.5422 45.6876C47.8004 44.9792 48.1694 44.3594 48.649 43.8281C49.136 43.2968 49.7263 42.8725 50.4199 42.5552C51.1209 42.2379 51.9105 42.0793 52.7886 42.0793C53.5486 42.0793 54.2201 42.2047 54.803 42.4556C55.386 42.6991 55.873 43.0201 56.2641 43.4186C56.6625 43.817 56.9651 44.2745 57.1717 44.7911C57.3783 45.3076 57.4816 45.8315 57.4816 46.3628C57.4816 46.4292 57.4779 46.5214 57.4705 46.6395C57.4705 46.7575 57.4668 46.8793 57.4594 47.0047C57.4521 47.1228 57.4447 47.2372 57.4373 47.3479C57.4299 47.4585 57.4225 47.5397 57.4152 47.5914H50.3314C50.3388 48.9565 50.6339 49.9969 51.2169 50.7126C51.7998 51.421 52.7 51.7752 53.9176 51.7752C54.316 51.7752 54.6776 51.742 55.0023 51.6756C55.3269 51.6018 55.6221 51.5133 55.8877 51.41C56.1534 51.3067 56.3895 51.196 56.5961 51.0779C56.8101 50.9598 56.9983 50.8565 57.1606 50.768H57.4594V51.6977C57.2086 51.9117 56.9097 52.1294 56.5629 52.3508C56.2161 52.5721 55.8398 52.7751 55.4339 52.9595C55.0281 53.1366 54.5927 53.2805 54.1279 53.3912C53.663 53.5093 53.1834 53.5683 52.689 53.5683ZM54.3603 46.5509C54.3603 46.0787 54.3345 45.6433 54.2828 45.2449C54.2312 44.839 54.1352 44.4922 53.995 44.2044C53.8622 43.9093 53.6777 43.6805 53.4416 43.5182C53.2129 43.3485 52.9251 43.2636 52.5783 43.2636C52.2388 43.2636 51.9363 43.3411 51.6707 43.4961C51.405 43.6436 51.18 43.8576 50.9955 44.138C50.8184 44.4184 50.6782 44.7652 50.5749 45.1784C50.4716 45.5843 50.4052 46.0418 50.3757 46.5509H54.3603Z" fill="#1E1F22"/>
<path d="M58.0378 52.6275L59.2 52.2401C59.3328 52.1958 59.4471 52.122 59.5431 52.0187C59.639 51.9154 59.687 51.7826 59.687 51.6203V44.8464C59.687 44.7357 59.6759 44.6361 59.6538 44.5476C59.6316 44.459 59.5947 44.3815 59.5431 44.3151C59.4914 44.2487 59.425 44.1897 59.3438 44.138C59.2701 44.079 59.1704 44.0273 59.045 43.9831L57.9492 43.6067V43.009L62.609 42.1789V44.614H62.6312C62.823 44.2967 63.0259 43.9868 63.2399 43.6842C63.4539 43.3817 63.69 43.1123 63.9483 42.8762C64.2139 42.6401 64.5054 42.4482 64.8227 42.3007C65.14 42.1531 65.5016 42.0793 65.9074 42.0793C66.114 42.0793 66.2985 42.0904 66.4608 42.1125C66.6232 42.1273 66.7707 42.1531 66.9036 42.19C67.0438 42.2195 67.1766 42.2601 67.302 42.3117C67.4275 42.356 67.5566 42.404 67.6894 42.4556V45.8204H66.5604L66.1066 44.9903C66.0771 44.9239 66.0181 44.8612 65.9295 44.8021C65.8484 44.7431 65.7561 44.6914 65.6528 44.6472C65.5495 44.5955 65.4388 44.5586 65.3208 44.5365C65.2027 44.507 65.0883 44.4922 64.9777 44.4922C64.7637 44.4922 64.5608 44.507 64.3689 44.5365C64.177 44.5586 63.9889 44.6066 63.8044 44.6804C63.6199 44.7542 63.4391 44.8575 63.2621 44.9903C63.0923 45.1231 62.9189 45.3002 62.7418 45.5216V51.6203C62.7418 51.79 62.7861 51.9265 62.8747 52.0298C62.9632 52.1331 63.0813 52.2032 63.2288 52.2401L64.6235 52.6275V53.3248H58.0378V52.6275Z" fill="#1E1F22"/>
<path d="M78.3023 53.6679C77.6677 53.6679 77.0663 53.5683 76.4981 53.3691C75.9373 53.1772 75.443 52.9042 75.015 52.55C74.587 52.1884 74.2476 51.7531 73.9967 51.2439C73.7532 50.7274 73.6314 50.1518 73.6314 49.5173C73.6314 49.2664 73.6572 49.0044 73.7089 48.7314C73.7679 48.451 73.8491 48.1743 73.9524 47.9013C74.0557 47.6209 74.1738 47.3552 74.3066 47.1044C74.4468 46.8535 74.6018 46.6321 74.7715 46.4402L77.1069 44.9792C76.642 44.5365 76.2694 44.1491 75.989 43.817C75.716 43.485 75.5057 43.1788 75.3581 42.8984C75.2105 42.618 75.1146 42.3449 75.0703 42.0793C75.026 41.8137 75.0039 41.5333 75.0039 41.2381C75.0039 40.7068 75.1441 40.2198 75.4245 39.7771C75.7123 39.327 76.0886 38.9432 76.5535 38.626C77.0184 38.3087 77.5496 38.0615 78.1473 37.8844C78.7524 37.7073 79.3759 37.6187 80.0179 37.6187C80.7115 37.6187 81.3387 37.6962 81.8995 37.8512C82.4603 38.0061 82.9399 38.2238 83.3384 38.5042C83.7369 38.7772 84.0431 39.113 84.2571 39.5114C84.4711 39.9025 84.5781 40.3342 84.5781 40.8064C84.5781 41.3525 84.4895 41.8505 84.3124 42.3007C84.1353 42.7434 83.9066 43.1382 83.6262 43.485L80.8923 44.946L84.6334 48.6429C84.8105 48.3772 84.9728 48.1005 85.1204 47.8127C85.268 47.525 85.3934 47.2482 85.4967 46.9826C85.6001 46.717 85.6849 46.4735 85.7513 46.2521C85.8177 46.0307 85.8657 45.8536 85.8952 45.7208L83.925 45.1231V44.4037H89.6585V45.1231L88.3303 45.5326C88.1901 45.5843 88.0646 45.6839 87.9539 45.8315C87.8432 45.9791 87.7473 46.1266 87.6662 46.2742C87.4964 46.6137 87.323 46.9236 87.1459 47.204C86.9762 47.4844 86.7991 47.75 86.6147 48.0009C86.4376 48.2518 86.2568 48.499 86.0723 48.7425C85.8878 48.9786 85.696 49.2295 85.4967 49.4951L87.2898 51.255C87.3636 51.3288 87.4485 51.41 87.5444 51.4985C87.6477 51.5797 87.751 51.6608 87.8543 51.742C87.965 51.8232 88.072 51.897 88.1753 51.9634C88.286 52.0298 88.3819 52.0778 88.4631 52.1073L90.0237 52.6053V53.3248H86.6921C86.3527 53.3248 86.0723 53.3063 85.8509 53.2694C85.6296 53.2326 85.4267 53.1661 85.2422 53.0702C85.0651 52.9743 84.8806 52.8415 84.6888 52.6718C84.5043 52.4947 84.2755 52.2659 84.0025 51.9855L83.438 51.41C83.0396 51.801 82.6411 52.1405 82.2426 52.4283C81.8516 52.7087 81.4457 52.9411 81.0251 53.1256C80.6045 53.31 80.1692 53.4465 79.719 53.5351C79.2689 53.6236 78.7967 53.6679 78.3023 53.6679ZM80.0732 44.0937C80.4274 43.8724 80.7152 43.6399 80.9366 43.3964C81.1579 43.1456 81.3277 42.8836 81.4457 42.6106C81.5638 42.3376 81.6413 42.0535 81.6782 41.7583C81.7224 41.4632 81.7446 41.1532 81.7446 40.8286C81.7446 40.5334 81.704 40.2641 81.6228 40.0206C81.549 39.7771 81.4346 39.5705 81.2797 39.4007C81.1321 39.2236 80.9513 39.0908 80.7373 39.0023C80.5233 38.9064 80.2798 38.8584 80.0068 38.8584C79.7486 38.8584 79.5051 38.91 79.2763 39.0133C79.0476 39.1167 78.8483 39.2605 78.6786 39.445C78.5163 39.6221 78.3835 39.8324 78.2802 40.0759C78.1842 40.3194 78.1363 40.5777 78.1363 40.8507C78.1363 41.1311 78.1695 41.3967 78.2359 41.6476C78.3023 41.8911 78.413 42.142 78.5679 42.4003C78.7229 42.6512 78.9221 42.9131 79.1656 43.1861C79.4091 43.4592 79.7117 43.7617 80.0732 44.0937ZM79.3538 51.6535C79.7154 51.6535 80.0363 51.6387 80.3167 51.6092C80.6045 51.5723 80.8702 51.5133 81.1137 51.4321C81.3645 51.3435 81.608 51.2329 81.8442 51.1C82.0803 50.9598 82.3312 50.7864 82.5968 50.5798L77.8706 45.7761C77.6419 45.968 77.4574 46.182 77.3172 46.4181C77.1844 46.6542 77.0811 46.9051 77.0073 47.1708C76.9409 47.4364 76.8966 47.7205 76.8745 48.023C76.8523 48.3256 76.8413 48.6355 76.8413 48.9528C76.8413 49.2848 76.8966 49.6132 77.0073 49.9379C77.1254 50.2552 77.2914 50.5429 77.5054 50.8012C77.7267 51.0521 77.9924 51.2587 78.3023 51.421C78.6122 51.576 78.9627 51.6535 79.3538 51.6535Z" fill="#1E1F22"/>
<path d="M95.0167 52.6275L96.1347 52.2401C96.3044 52.1811 96.4261 52.0999 96.4999 51.9966C96.5811 51.8933 96.6217 51.7678 96.6217 51.6203V39.0687C96.6217 38.8842 96.5737 38.7477 96.4778 38.6592C96.3819 38.5706 96.2158 38.4821 95.9797 38.3935L94.895 37.9619V37.3642L99.6876 36.534V47.8349L103.728 43.6178L102.455 43.0976V42.4003H107.148V43.0976L105.93 43.5071C105.775 43.5588 105.617 43.6399 105.454 43.7506C105.299 43.8613 105.17 43.9683 105.067 44.0716L102.765 46.1967L106.373 51.7863C106.461 51.9191 106.576 52.0335 106.716 52.1294C106.856 52.2179 107.015 52.2917 107.192 52.3508L108 52.6275V53.3248H102.377V52.6275L103.263 52.2401L100.695 48.0562L99.6765 48.7314V51.6203C99.6765 51.79 99.7208 51.9191 99.8094 52.0077C99.8979 52.0962 100.016 52.1737 100.164 52.2401L101.049 52.6275V53.3248H95.0167V52.6275Z" fill="#1E1F22"/>
<path d="M110.447 53.5462C109.997 53.5462 109.588 53.465 109.219 53.3027C108.85 53.1329 108.533 52.9079 108.267 52.6275C108.009 52.3471 107.809 52.0261 107.669 51.6645C107.529 51.303 107.459 50.9266 107.459 50.5356C107.459 50.0707 107.536 49.6575 107.691 49.2959C107.854 48.9269 108.068 48.6023 108.333 48.3219C108.599 48.0415 108.905 47.8017 109.252 47.6024C109.606 47.4032 109.971 47.2409 110.348 47.1154C110.731 46.99 111.111 46.8977 111.488 46.8387C111.871 46.7723 112.233 46.7391 112.572 46.7391C112.646 46.7391 112.746 46.7465 112.871 46.7612C113.004 46.7686 113.141 46.7797 113.281 46.7944C113.428 46.8018 113.569 46.8129 113.701 46.8276C113.834 46.835 113.938 46.8387 114.011 46.8387L114.022 45.3223C114.022 44.9608 114 44.6619 113.956 44.4258C113.912 44.1823 113.834 43.9941 113.724 43.8613C113.613 43.7211 113.469 43.6252 113.292 43.5735C113.115 43.5145 112.89 43.485 112.617 43.485C112.322 43.485 112.008 43.5551 111.676 43.6953C111.344 43.8281 111.012 43.9904 110.68 44.1823C110.355 44.3741 110.045 44.5771 109.75 44.7911C109.462 44.9977 109.211 45.1711 108.997 45.3113H108.588L108.189 43.0422C108.462 42.9242 108.758 42.8098 109.075 42.6991C109.392 42.5811 109.732 42.4778 110.093 42.3892C110.462 42.2933 110.85 42.2195 111.255 42.1678C111.669 42.1088 112.104 42.0793 112.561 42.0793C113.093 42.0793 113.628 42.1383 114.166 42.2564C114.712 42.3671 115.199 42.5626 115.627 42.843C116.055 43.116 116.402 43.4813 116.668 43.9388C116.941 44.3963 117.074 44.9645 117.066 45.6433L117.011 51.1886C117.011 51.3067 117.029 51.41 117.066 51.4985C117.111 51.5871 117.17 51.6645 117.243 51.7309C117.325 51.7974 117.42 51.849 117.531 51.8859C117.642 51.9228 117.775 51.9412 117.93 51.9412C118.011 51.9412 118.144 51.9265 118.328 51.897C118.513 51.8675 118.686 51.8342 118.848 51.7974H119.092V52.6164C118.981 52.705 118.822 52.8009 118.616 52.9042C118.417 53.0075 118.188 53.1071 117.93 53.203C117.679 53.299 117.413 53.3801 117.133 53.4465C116.86 53.513 116.598 53.5462 116.347 53.5462C116 53.5462 115.683 53.513 115.395 53.4465C115.115 53.3875 114.871 53.2879 114.664 53.1477C114.458 53.0075 114.295 52.8193 114.177 52.5832C114.067 52.3471 114.011 52.0556 114.011 51.7088H113.989C113.716 52.122 113.425 52.4541 113.115 52.705C112.805 52.9485 112.491 53.1329 112.174 53.2584C111.857 53.3838 111.55 53.4613 111.255 53.4908C110.96 53.5277 110.691 53.5462 110.447 53.5462ZM112.174 51.8084C112.336 51.8084 112.499 51.7974 112.661 51.7752C112.823 51.7457 112.986 51.694 113.148 51.6203C113.31 51.5465 113.462 51.4505 113.602 51.3325C113.749 51.2144 113.879 51.0631 113.989 50.8787L114.011 47.7463C113.495 47.7463 113.026 47.7906 112.606 47.8791C112.192 47.9603 111.838 48.0931 111.543 48.2776C111.248 48.4621 111.019 48.6982 110.857 48.986C110.702 49.2664 110.624 49.6095 110.624 50.0153C110.624 50.3621 110.672 50.6499 110.768 50.8787C110.864 51.1074 110.986 51.2919 111.134 51.4321C111.281 51.5723 111.447 51.6719 111.632 51.7309C111.816 51.7826 111.997 51.8084 112.174 51.8084Z" fill="#1E1F22"/>
<path d="M118.815 52.6275L119.999 52.229C120.14 52.1847 120.254 52.111 120.342 52.0077C120.438 51.9043 120.486 51.7715 120.486 51.6092V43.8392H118.439L118.704 42.5442H120.497C120.512 41.5406 120.656 40.6552 120.929 39.8878C121.209 39.1203 121.586 38.4747 122.058 37.9508C122.53 37.4269 123.084 37.0321 123.718 36.7665C124.353 36.4934 125.043 36.3569 125.788 36.3569C125.921 36.3569 126.083 36.3643 126.275 36.3791C126.474 36.3938 126.677 36.4233 126.884 36.4676C127.098 36.5045 127.305 36.5488 127.504 36.6004C127.71 36.6521 127.884 36.7111 128.024 36.7775L127.592 39.0244H127.205C127.013 38.9285 126.795 38.8252 126.552 38.7145C126.316 38.6038 126.072 38.5079 125.821 38.4267C125.57 38.3382 125.327 38.2644 125.091 38.2054C124.855 38.1463 124.644 38.1168 124.46 38.1168C124.268 38.1168 124.113 38.1574 123.995 38.2386C123.877 38.3197 123.792 38.4599 123.74 38.6592C123.645 39.0134 123.582 39.5077 123.552 40.1423C123.53 40.7695 123.515 41.5701 123.508 42.5442H126.574L126.264 43.8392H123.541V51.6092C123.541 51.7789 123.586 51.9154 123.674 52.0187C123.77 52.122 123.888 52.1921 124.028 52.229L125.423 52.6275V53.3248H118.815V52.6275ZM126.995 52.6275L128.179 52.229C128.319 52.1847 128.433 52.111 128.522 52.0077C128.618 51.9043 128.666 51.7715 128.666 51.6092V43.8392H126.618L126.884 42.5442H128.677C128.692 41.5406 128.836 40.6552 129.109 39.8878C129.389 39.1203 129.765 38.4747 130.238 37.9508C130.71 37.4269 131.263 37.0321 131.898 36.7665C132.532 36.4934 133.222 36.3569 133.968 36.3569C134.1 36.3569 134.263 36.3643 134.455 36.3791C134.654 36.3938 134.857 36.4233 135.063 36.4676C135.277 36.5045 135.484 36.5488 135.683 36.6004C135.89 36.6521 136.063 36.7111 136.203 36.7775L135.772 39.0244H135.384C135.193 38.9285 134.975 38.8252 134.731 38.7145C134.495 38.6038 134.252 38.5079 134.001 38.4267C133.75 38.3382 133.506 38.2644 133.27 38.2054C133.034 38.1463 132.824 38.1168 132.639 38.1168C132.448 38.1168 132.293 38.1574 132.175 38.2386C132.057 38.3197 131.972 38.4599 131.92 38.6592C131.824 39.0134 131.761 39.5077 131.732 40.1423C131.71 40.7695 131.695 41.5701 131.688 42.5442H134.754L134.444 43.8392H131.721V51.6092C131.721 51.7789 131.765 51.9154 131.854 52.0187C131.95 52.122 132.068 52.1921 132.208 52.229L133.602 52.6275V53.3248H126.995V52.6275Z" fill="#1E1F22"/>
<path d="M140.13 53.5683C139.311 53.5683 138.562 53.4465 137.883 53.203C137.211 52.9595 136.628 52.598 136.134 52.1183C135.647 51.6387 135.267 51.0484 134.994 50.3474C134.728 49.639 134.595 48.8236 134.595 47.9013C134.595 47.1265 134.725 46.3886 134.983 45.6876C135.241 44.9792 135.61 44.3594 136.09 43.8281C136.577 43.2968 137.167 42.8725 137.861 42.5552C138.562 42.2379 139.351 42.0793 140.229 42.0793C140.989 42.0793 141.661 42.2047 142.244 42.4556C142.827 42.6991 143.314 43.0201 143.705 43.4186C144.103 43.817 144.406 44.2745 144.612 44.7911C144.819 45.3076 144.922 45.8315 144.922 46.3628C144.922 46.4292 144.919 46.5214 144.911 46.6395C144.911 46.7575 144.908 46.8793 144.9 47.0047C144.893 47.1228 144.885 47.2372 144.878 47.3479C144.871 47.4585 144.863 47.5397 144.856 47.5914H137.772C137.779 48.9565 138.075 49.9969 138.658 50.7126C139.24 51.421 140.141 51.7752 141.358 51.7752C141.757 51.7752 142.118 51.742 142.443 51.6756C142.768 51.6018 143.063 51.5133 143.328 51.41C143.594 51.3067 143.83 51.196 144.037 51.0779C144.251 50.9598 144.439 50.8565 144.601 50.768H144.9V51.6977C144.649 51.9117 144.35 52.1294 144.004 52.3508C143.657 52.5721 143.28 52.7751 142.875 52.9595C142.469 53.1366 142.033 53.2805 141.569 53.3912C141.104 53.5093 140.624 53.5683 140.13 53.5683ZM141.801 46.5509C141.801 46.0787 141.775 45.6433 141.723 45.2449C141.672 44.839 141.576 44.4922 141.436 44.2044C141.303 43.9093 141.118 43.6805 140.882 43.5182C140.654 43.3485 140.366 43.2636 140.019 43.2636C139.68 43.2636 139.377 43.3411 139.111 43.4961C138.846 43.6436 138.621 43.8576 138.436 44.138C138.259 44.4184 138.119 44.7652 138.016 45.1784C137.912 45.5843 137.846 46.0418 137.816 46.5509H141.801Z" fill="#1E1F22"/>
<path d="M0.93457 25.2496L2.67711 24.6575C2.8914 24.5898 3.06058 24.477 3.18464 24.3191C3.31998 24.1499 3.38766 23.9413 3.38766 23.6931V13.1872C3.38766 12.9052 3.30871 12.674 3.15081 12.4935C3.00419 12.3131 2.7617 12.1608 2.42334 12.0368L0.93457 11.4785V10.548L7.93855 9.26223V12.0198H7.97239C8.42353 11.3995 8.86903 10.9033 9.3089 10.5311C9.76004 10.1476 10.2055 9.84872 10.6454 9.63442C11.0965 9.42013 11.5364 9.27915 11.965 9.21148C12.3936 9.14381 12.8165 9.10997 13.2338 9.10997C13.7865 9.10997 14.3109 9.172 14.8072 9.29607C15.3147 9.42013 15.7772 9.61187 16.1945 9.87127C16.6118 10.1307 16.9783 10.4634 17.2941 10.8694C17.6099 11.2755 17.858 11.7661 18.0385 12.3413C18.5912 11.5743 19.1156 10.9766 19.6119 10.548C20.1081 10.1194 20.5875 9.8036 21.0499 9.60059C21.5123 9.38629 21.9578 9.25095 22.3864 9.19456C22.815 9.13817 23.2323 9.10997 23.6383 9.10997C24.3601 9.10997 25.0368 9.22276 25.6684 9.44833C26.3 9.6739 26.8527 10.0235 27.3264 10.4972C27.8001 10.9709 28.1666 11.58 28.4261 12.3244C28.6967 13.0687 28.8321 13.9598 28.8321 14.9974V23.7101C28.8321 23.9582 28.8998 24.1556 29.0351 24.3022C29.1704 24.4375 29.3509 24.5503 29.5765 24.6405L31.0991 25.2327V26.2985H21.9127V25.2496L23.4522 24.6575C23.6665 24.5785 23.8357 24.4601 23.9597 24.3022C24.0951 24.1443 24.1628 23.9356 24.1628 23.6762V16.6215C24.1628 15.8658 24.1289 15.2004 24.0613 14.6252C24.0049 14.05 23.8808 13.5706 23.6891 13.1872C23.4973 12.8037 23.221 12.5105 22.8601 12.3074C22.5105 12.1044 22.0424 12.0029 21.4559 12.0029C21.2191 12.0029 20.9596 12.0142 20.6777 12.0368C20.407 12.0593 20.1363 12.1213 19.8656 12.2229C19.5949 12.3244 19.3299 12.471 19.0705 12.6627C18.8224 12.8432 18.6081 13.0969 18.4276 13.424V23.7101C18.4276 23.9695 18.4953 24.1668 18.6306 24.3022C18.7772 24.4263 18.9577 24.539 19.172 24.6405L20.4916 25.2327V26.2985H11.559V25.2496L13.0816 24.6575C13.2959 24.5785 13.465 24.4657 13.5891 24.3191C13.7245 24.1612 13.7921 23.9582 13.7921 23.7101V16.6215C13.7921 15.8658 13.7583 15.2004 13.6906 14.6252C13.6342 14.05 13.5102 13.5706 13.3184 13.1872C13.1267 12.8037 12.8504 12.5105 12.4895 12.3074C12.1285 12.1044 11.6548 12.0029 11.0684 12.0029C10.8089 12.0029 10.5383 12.0142 10.2563 12.0368C9.98561 12.0593 9.71493 12.1213 9.44424 12.2229C9.18483 12.3131 8.93107 12.4541 8.68294 12.6458C8.44609 12.8263 8.23743 13.0744 8.05698 13.3902V23.6931C8.05698 23.9526 8.12465 24.1556 8.25999 24.3022C8.40661 24.4375 8.58707 24.5503 8.80136 24.6405L10.121 25.2327V26.2985H0.93457V25.2496Z" fill="#1E1F22"/>
<path d="M36.2087 26.6369C35.5207 26.6369 34.8948 26.5128 34.3308 26.2647C33.7669 26.0053 33.2819 25.6613 32.8759 25.2327C32.4812 24.8041 32.1766 24.3135 31.9623 23.7608C31.7481 23.2082 31.6409 22.633 31.6409 22.0352C31.6409 21.3247 31.7593 20.6931 31.9962 20.1404C32.2443 19.5765 32.5714 19.0802 32.9774 18.6516C33.3834 18.223 33.8515 17.8565 34.3816 17.552C34.923 17.2474 35.4813 16.9993 36.0565 16.8076C36.643 16.6159 37.2238 16.4749 37.799 16.3846C38.3855 16.2831 38.9381 16.2324 39.4569 16.2324C39.5697 16.2324 39.722 16.2437 39.9137 16.2662C40.1167 16.2775 40.3254 16.2944 40.5397 16.317C40.7653 16.3282 40.9796 16.3452 41.1826 16.3677C41.3856 16.379 41.5435 16.3846 41.6563 16.3846L41.6732 14.0669C41.6732 13.5142 41.6393 13.0575 41.5717 12.6966C41.504 12.3244 41.3856 12.0368 41.2164 11.8337C41.0472 11.6194 40.8273 11.4728 40.5566 11.3939C40.2859 11.3036 39.9419 11.2585 39.5246 11.2585C39.0735 11.2585 38.5941 11.3657 38.0866 11.58C37.5791 11.783 37.0715 12.0311 36.564 12.3244C36.0677 12.6176 35.594 12.9278 35.1429 13.2548C34.703 13.5706 34.3196 13.8357 33.9925 14.05H33.3665L32.7575 10.5818C33.1748 10.4014 33.6259 10.2265 34.1109 10.0574C34.5959 9.87691 35.1147 9.71901 35.6674 9.58367C36.2313 9.43705 36.8234 9.32426 37.4437 9.24531C38.0753 9.15508 38.7408 9.10997 39.44 9.10997C40.2521 9.10997 41.0698 9.2002 41.8931 9.38065C42.7277 9.54983 43.4721 9.84872 44.1263 10.2773C44.7804 10.6946 45.3105 11.2529 45.7165 11.9522C46.1339 12.6514 46.3369 13.5199 46.3256 14.5575L46.241 23.0333C46.241 23.2138 46.2692 23.3717 46.3256 23.507C46.3933 23.6424 46.4835 23.7608 46.5963 23.8623C46.7203 23.9638 46.867 24.0428 47.0361 24.0992C47.2053 24.1556 47.4083 24.1838 47.6452 24.1838C47.7692 24.1838 47.9723 24.1612 48.2542 24.1161C48.5362 24.071 48.8012 24.0202 49.0494 23.9638H49.4216V25.2158C49.2524 25.3511 49.0099 25.4977 48.6941 25.6556C48.3896 25.8135 48.0399 25.9658 47.6452 26.1124C47.2617 26.259 46.8557 26.3831 46.4271 26.4846C46.0098 26.5861 45.6094 26.6369 45.2259 26.6369C44.6958 26.6369 44.2109 26.5861 43.771 26.4846C43.3424 26.3944 42.9702 26.2421 42.6544 26.0278C42.3386 25.8135 42.0905 25.5259 41.91 25.165C41.7409 24.8041 41.6563 24.3586 41.6563 23.8285H41.6224C41.2051 24.4601 40.7596 24.9676 40.2859 25.3511C39.8122 25.7233 39.3329 26.0053 38.8479 26.197C38.3629 26.3887 37.8949 26.5071 37.4437 26.5523C36.9926 26.6087 36.5809 26.6369 36.2087 26.6369ZM38.8479 23.9807C39.096 23.9807 39.3442 23.9638 39.5923 23.93C39.8404 23.8849 40.0885 23.8059 40.3367 23.6931C40.5848 23.5804 40.816 23.4337 41.0303 23.2533C41.2559 23.0728 41.4533 22.8416 41.6224 22.5597L41.6563 17.7719C40.8668 17.7719 40.1506 17.8396 39.5077 17.9749C38.8761 18.099 38.3347 18.302 37.8836 18.584C37.4324 18.8659 37.0828 19.2268 36.8347 19.6667C36.5978 20.0953 36.4794 20.6197 36.4794 21.2401C36.4794 21.7702 36.5527 22.21 36.6993 22.5597C36.846 22.9093 37.0321 23.1913 37.2576 23.4055C37.4832 23.6198 37.737 23.7721 38.0189 23.8623C38.3009 23.9413 38.5772 23.9807 38.8479 23.9807Z" fill="#1E1F22"/>
<path d="M53.7356 6.13243C53.3408 6.13243 52.9686 6.05912 52.619 5.9125C52.2694 5.76588 51.9592 5.57414 51.6885 5.33729C51.4291 5.08916 51.2205 4.79592 51.0626 4.45756C50.9159 4.11921 50.8426 3.75265 50.8426 3.3579C50.8426 2.98571 50.9159 2.63608 51.0626 2.309C51.2205 1.97064 51.4291 1.68304 51.6885 1.44619C51.9479 1.19806 52.2524 1.00633 52.6021 0.870983C52.9517 0.73564 53.3295 0.667969 53.7356 0.667969C54.1529 0.667969 54.5364 0.73564 54.886 0.870983C55.2469 1.00633 55.5627 1.19242 55.8334 1.42927C56.1041 1.66612 56.3127 1.94809 56.4593 2.27516C56.6172 2.60224 56.6962 2.95752 56.6962 3.34099C56.6962 3.73574 56.6172 4.10229 56.4593 4.44065C56.3014 4.779 56.0872 5.07225 55.8165 5.32037C55.5458 5.5685 55.23 5.76588 54.8691 5.9125C54.5194 6.05912 54.1416 6.13243 53.7356 6.13243ZM48.3219 34.0638C48.1076 34.0638 47.8538 34.0469 47.5606 34.013C47.256 33.9905 46.9402 33.951 46.6132 33.8946C46.2861 33.8382 45.9703 33.7705 45.6658 33.6916C45.35 33.6126 45.0849 33.5168 44.8706 33.404L45.5304 29.9697H46.1226C46.4045 30.1276 46.7316 30.2855 47.1038 30.4434C47.476 30.6125 47.8538 30.7648 48.2373 30.9001C48.632 31.0355 49.0099 31.1483 49.3708 31.2385C49.743 31.3287 50.0644 31.3738 50.3351 31.3738C50.6283 31.3738 50.8652 31.3118 51.0456 31.1877C51.2261 31.0637 51.3614 30.8494 51.4517 30.5449C51.5193 30.2855 51.5701 29.9527 51.6039 29.5467C51.649 29.1407 51.6829 28.6783 51.7054 28.1595C51.7393 27.6406 51.7562 27.0598 51.7562 26.4169C51.7675 25.7853 51.7731 25.0973 51.7731 24.3529V13.2548C51.7731 12.939 51.6942 12.6909 51.5363 12.5105C51.3896 12.33 51.1359 12.1834 50.775 12.0706L48.9478 11.4785V10.548L56.4424 9.34682V24.4883C56.4424 25.9996 56.2338 27.3474 55.8165 28.5317C55.3992 29.7272 54.824 30.731 54.0908 31.543C53.369 32.3664 52.5118 32.9923 51.5193 33.4209C50.5268 33.8495 49.461 34.0638 48.3219 34.0638Z" fill="#1E1F22"/>
<path d="M67.5905 26.7553C66.2709 26.7553 65.081 26.5523 64.0208 26.1462C62.9719 25.7289 62.0753 25.1424 61.3309 24.3868C60.5978 23.6198 60.0282 22.695 59.6222 21.6123C59.2274 20.5295 59.0301 19.3171 59.0301 17.9749C59.0301 16.7343 59.2274 15.5782 59.6222 14.5068C60.0169 13.424 60.5865 12.4823 61.3309 11.6815C62.0866 10.8807 63.0058 10.2547 64.0885 9.8036C65.1712 9.34118 66.4062 9.10997 67.7935 9.10997C69.2823 9.10997 70.568 9.35246 71.6508 9.83744C72.7335 10.3224 73.6189 10.9709 74.3069 11.783C75.0061 12.5838 75.525 13.5199 75.8633 14.5914C76.2017 15.6515 76.3708 16.7568 76.3708 17.9072C76.3708 19.1253 76.1735 20.2757 75.7787 21.3585C75.3953 22.4299 74.8257 23.3661 74.07 24.1668C73.3256 24.9676 72.4064 25.5992 71.3124 26.0616C70.2297 26.5241 68.989 26.7553 67.5905 26.7553ZM67.8273 24.9282C68.5604 24.9282 69.1526 24.7139 69.6037 24.2853C70.0661 23.8567 70.427 23.3153 70.6865 22.6612C70.9459 22.007 71.1207 21.2852 71.2109 20.4957C71.3011 19.7062 71.3463 18.9505 71.3463 18.2287C71.3463 17.3264 71.2842 16.441 71.1601 15.5726C71.0361 14.7041 70.8274 13.9259 70.5342 13.2379C70.241 12.5499 69.8518 11.9973 69.3669 11.58C68.8932 11.1514 68.2954 10.9371 67.5736 10.9371C66.8517 10.9371 66.2596 11.1457 65.7972 11.5631C65.3461 11.9804 64.9908 12.5161 64.7314 13.1703C64.4832 13.8244 64.3084 14.5462 64.2069 15.3357C64.1167 16.114 64.0716 16.864 64.0716 17.5858C64.0716 18.3866 64.1223 19.2212 64.2238 20.0896C64.3254 20.9581 64.5114 21.7532 64.7821 22.4751C65.0641 23.1856 65.4476 23.7721 65.9325 24.2345C66.4175 24.6969 67.0491 24.9282 67.8273 24.9282Z" fill="#1E1F22"/>
<path d="M77.263 25.2327L79.0393 24.6405C79.2424 24.5729 79.4172 24.4601 79.5638 24.3022C79.7104 24.1443 79.7837 23.9413 79.7837 23.6931V13.3394C79.7837 13.1703 79.7668 13.018 79.733 12.8826C79.6991 12.7473 79.6428 12.6289 79.5638 12.5274C79.4848 12.4259 79.3833 12.3356 79.2593 12.2567C79.1465 12.1665 78.9942 12.0875 78.8025 12.0198L77.1276 11.4446V10.5311L84.25 9.26223V12.9842H84.2839C84.5771 12.4992 84.8873 12.0255 85.2144 11.5631C85.5414 11.1006 85.9024 10.689 86.2971 10.3281C86.7031 9.96714 87.1486 9.6739 87.6336 9.44833C88.1186 9.22276 88.6712 9.10997 89.2916 9.10997C89.6074 9.10997 89.8893 9.12689 90.1375 9.16072C90.3856 9.18328 90.6111 9.22276 90.8142 9.27915C91.0285 9.32426 91.2315 9.38629 91.4232 9.46524C91.6149 9.53292 91.8123 9.60623 92.0153 9.68518V14.8282H90.2897L89.5961 13.5594C89.551 13.4579 89.4607 13.362 89.3254 13.2718C89.2013 13.1815 89.0603 13.1026 88.9025 13.0349C88.7445 12.956 88.5754 12.8996 88.3949 12.8657C88.2145 12.8206 88.0396 12.7981 87.8705 12.7981C87.5434 12.7981 87.2332 12.8206 86.94 12.8657C86.6467 12.8996 86.3591 12.9729 86.0772 13.0857C85.7952 13.1984 85.5189 13.3563 85.2482 13.5594C84.9888 13.7624 84.7237 14.0331 84.4531 14.3714V23.6931C84.4531 23.9526 84.5207 24.1612 84.6561 24.3191C84.7914 24.477 84.9719 24.5842 85.1974 24.6405L87.3291 25.2327V26.2985H77.263V25.2327Z" fill="#1E1F22"/>
<path d="M92.6574 25.2327L94.3999 24.6405C94.6142 24.5616 94.789 24.4488 94.9244 24.3022C95.071 24.1443 95.1443 23.9413 95.1443 23.6931V13.1872C95.1443 12.9052 95.0654 12.6684 94.9075 12.4766C94.7496 12.2849 94.4958 12.127 94.1462 12.0029L92.6574 11.4446V10.5311L99.6952 9.26223V12.0198H99.729C100.18 11.3882 100.631 10.8807 101.082 10.4972C101.545 10.1138 102.002 9.82052 102.453 9.61751C102.915 9.41449 103.366 9.27915 103.806 9.21148C104.246 9.14381 104.686 9.10997 105.126 9.10997C105.881 9.10997 106.581 9.22276 107.224 9.44833C107.878 9.6739 108.447 10.0235 108.932 10.4972C109.417 10.9709 109.795 11.58 110.066 12.3244C110.337 13.0687 110.472 13.9598 110.472 14.9974V23.6255C110.472 23.9074 110.545 24.1274 110.692 24.2853C110.838 24.4432 111.013 24.5616 111.216 24.6405L112.739 25.2327V26.2985H103.536V25.2327L105.075 24.6405C105.267 24.5616 105.436 24.4432 105.583 24.2853C105.729 24.1274 105.803 23.9074 105.803 23.6255V16.6215C105.803 15.8658 105.769 15.2004 105.701 14.6252C105.633 14.05 105.498 13.5706 105.295 13.1872C105.092 12.8037 104.804 12.5105 104.432 12.3074C104.06 12.1044 103.564 12.0029 102.943 12.0029C102.684 12.0029 102.408 12.0142 102.114 12.0368C101.832 12.0593 101.551 12.1213 101.269 12.2229C100.998 12.3131 100.733 12.4541 100.473 12.6458C100.225 12.8263 100.005 13.0744 99.8136 13.3902V23.6931C99.8136 23.9526 99.8869 24.1499 100.034 24.2853C100.18 24.4206 100.355 24.539 100.558 24.6405L101.895 25.2327V26.2985H92.6574V25.2327Z" fill="#1E1F22"/>
<path d="M117.854 26.6369C117.166 26.6369 116.54 26.5128 115.976 26.2647C115.413 26.0053 114.928 25.6613 114.522 25.2327C114.127 24.8041 113.822 24.3135 113.608 23.7608C113.394 23.2082 113.287 22.633 113.287 22.0352C113.287 21.3247 113.405 20.6931 113.642 20.1404C113.89 19.5765 114.217 19.0802 114.623 18.6516C115.029 18.223 115.497 17.8565 116.027 17.552C116.569 17.2474 117.127 16.9993 117.702 16.8076C118.289 16.6159 118.869 16.4749 119.445 16.3846C120.031 16.2831 120.584 16.2324 121.103 16.2324C121.215 16.2324 121.368 16.2437 121.559 16.2662C121.762 16.2775 121.971 16.2944 122.185 16.317C122.411 16.3282 122.625 16.3452 122.828 16.3677C123.031 16.379 123.189 16.3846 123.302 16.3846L123.319 14.0669C123.319 13.5142 123.285 13.0575 123.217 12.6966C123.15 12.3244 123.031 12.0368 122.862 11.8337C122.693 11.6194 122.473 11.4728 122.202 11.3939C121.932 11.3036 121.588 11.2585 121.17 11.2585C120.719 11.2585 120.24 11.3657 119.732 11.58C119.225 11.783 118.717 12.0311 118.21 12.3244C117.713 12.6176 117.24 12.9278 116.788 13.2548C116.349 13.5706 115.965 13.8357 115.638 14.05H115.012L114.403 10.5818C114.82 10.4014 115.272 10.2265 115.757 10.0574C116.241 9.87691 116.76 9.71901 117.313 9.58367C117.877 9.43705 118.469 9.32426 119.089 9.24531C119.721 9.15508 120.386 9.10997 121.086 9.10997C121.898 9.10997 122.715 9.2002 123.539 9.38065C124.373 9.54983 125.118 9.84872 125.772 10.2773C126.426 10.6946 126.956 11.2529 127.362 11.9522C127.779 12.6514 127.982 13.5199 127.971 14.5575L127.887 23.0333C127.887 23.2138 127.915 23.3717 127.971 23.507C128.039 23.6424 128.129 23.7608 128.242 23.8623C128.366 23.9638 128.513 24.0428 128.682 24.0992C128.851 24.1556 129.054 24.1838 129.291 24.1838C129.415 24.1838 129.618 24.1612 129.9 24.1161C130.182 24.071 130.447 24.0202 130.695 23.9638H131.067V25.2158C130.898 25.3511 130.655 25.4977 130.34 25.6556C130.035 25.8135 129.686 25.9658 129.291 26.1124C128.907 26.259 128.501 26.3831 128.073 26.4846C127.655 26.5861 127.255 26.6369 126.872 26.6369C126.341 26.6369 125.856 26.5861 125.417 26.4846C124.988 26.3944 124.616 26.2421 124.3 26.0278C123.984 25.8135 123.736 25.5259 123.556 25.165C123.386 24.8041 123.302 24.3586 123.302 23.8285H123.268C122.851 24.4601 122.405 24.9676 121.932 25.3511C121.458 25.7233 120.978 26.0053 120.493 26.197C120.009 26.3887 119.54 26.5071 119.089 26.5523C118.638 26.6087 118.227 26.6369 117.854 26.6369ZM120.493 23.9807C120.742 23.9807 120.99 23.9638 121.238 23.93C121.486 23.8849 121.734 23.8059 121.982 23.6931C122.23 23.5804 122.462 23.4337 122.676 23.2533C122.901 23.0728 123.099 22.8416 123.268 22.5597L123.302 17.7719C122.512 17.7719 121.796 17.8396 121.153 17.9749C120.522 18.099 119.98 18.302 119.529 18.584C119.078 18.8659 118.728 19.2268 118.48 19.6667C118.243 20.0953 118.125 20.6197 118.125 21.2401C118.125 21.7702 118.198 22.21 118.345 22.5597C118.492 22.9093 118.678 23.1913 118.903 23.4055C119.129 23.6198 119.383 23.7721 119.665 23.8623C119.946 23.9413 120.223 23.9807 120.493 23.9807Z" fill="#1E1F22"/>
<path d="M137.293 26.7891C136.605 26.7891 135.968 26.7496 135.381 26.6707C134.806 26.603 134.265 26.5071 133.757 26.3831C133.261 26.2703 132.798 26.1519 132.37 26.0278C131.941 25.8925 131.53 25.7684 131.135 25.6556V20.7833H132.708L133.334 22.6104C133.379 22.7457 133.441 22.8698 133.52 22.9826C133.61 23.0954 133.712 23.2025 133.825 23.304C133.938 23.3943 134.05 23.4789 134.163 23.5578C134.276 23.6255 134.389 23.6875 134.501 23.7439C134.693 23.8567 134.936 23.9751 135.229 24.0992C135.533 24.2232 135.855 24.336 136.193 24.4375C136.532 24.539 136.876 24.6236 137.225 24.6913C137.586 24.759 137.93 24.7928 138.257 24.7928C138.618 24.7928 138.951 24.7533 139.255 24.6744C139.571 24.5842 139.842 24.4432 140.067 24.2514C140.293 24.0597 140.468 23.8116 140.592 23.507C140.727 23.2025 140.795 22.8247 140.795 22.3736C140.795 21.9901 140.71 21.6743 140.541 21.4262C140.372 21.178 140.141 20.9637 139.847 20.7833C139.566 20.5915 139.244 20.4393 138.883 20.3265C138.522 20.2024 138.15 20.084 137.767 19.9712C137.203 19.8133 136.701 19.6723 136.261 19.5483C135.821 19.4242 135.381 19.2945 134.941 19.1592C134.377 18.9787 133.875 18.7475 133.436 18.4655C132.996 18.1723 132.618 17.8283 132.302 17.4335C131.998 17.0388 131.766 16.5877 131.608 16.0801C131.451 15.5613 131.372 15.003 131.372 14.4053C131.372 13.6158 131.563 12.8939 131.947 12.2398C132.33 11.5856 132.855 11.0273 133.52 10.5649C134.186 10.0912 134.964 9.72465 135.855 9.46524C136.757 9.20584 137.716 9.07613 138.731 9.07613C139.351 9.07613 139.898 9.09869 140.372 9.14381C140.857 9.17764 141.302 9.2284 141.708 9.29607C142.126 9.35246 142.515 9.42577 142.876 9.516C143.248 9.59495 143.631 9.67954 144.026 9.76977L144.263 14.6421H142.639L141.928 12.8319C141.838 12.6063 141.697 12.4033 141.505 12.2229C141.314 12.0424 141.105 11.8958 140.879 11.783C140.688 11.6815 140.473 11.5856 140.237 11.4954C140.011 11.4052 139.763 11.3262 139.492 11.2585C139.222 11.1796 138.945 11.1176 138.663 11.0724C138.393 11.0273 138.122 11.0048 137.851 11.0048C137.626 11.0048 137.383 11.0499 137.124 11.1401C136.864 11.2191 136.627 11.3431 136.413 11.5123C136.199 11.6815 136.018 11.9014 135.872 12.1721C135.736 12.4428 135.669 12.7699 135.669 13.1533C135.669 13.5481 135.736 13.8864 135.872 14.1684C136.007 14.4391 136.193 14.6703 136.43 14.862C136.667 15.0425 136.932 15.1948 137.225 15.3188C137.53 15.4429 137.846 15.55 138.173 15.6403C138.669 15.7982 139.143 15.9504 139.594 16.097C140.056 16.2437 140.451 16.3677 140.778 16.4692C141.41 16.661 141.985 16.8922 142.504 17.1629C143.034 17.4223 143.485 17.7324 143.857 18.0933C144.24 18.4543 144.534 18.8772 144.737 19.3622C144.951 19.8359 145.058 20.3942 145.058 21.037C145.058 22.0296 144.838 22.8924 144.398 23.6255C143.97 24.3473 143.395 24.9451 142.673 25.4188C141.951 25.8812 141.122 26.2252 140.186 26.4508C139.25 26.6763 138.285 26.7891 137.293 26.7891Z" fill="#1E1F22"/>
<path fill-rule="evenodd" clip-rule="evenodd" d="M42.3412 32.7692H0.0888672V31.2466H42.3412V32.7692Z" fill="#1E1F22"/>
<path fill-rule="evenodd" clip-rule="evenodd" d="M146.259 32.7692L57.1865 32.7692L57.1865 31.2466L146.259 31.2466L146.259 32.7692Z" fill="#1E1F22"/>
</svg>