<svg width="333" height="126" viewBox="0 0 333 126" fill="none" xmlns="http://www.w3.org/2000/svg">
<path d="M79.9863 76.7212L96.9127 78.6604L94.0783 85.1491C94.0783 85.1491 82.5255 85.4322 79.4145 85.7647C76.3034 86.0971 70.1919 86.3803 69.5033 85.9247C68.8147 85.4692 72.0979 81.8309 73.6535 81.4369C75.209 81.0429 79.9863 76.7212 79.9863 76.7212Z" fill="#ECDBC9"/>
<path d="M301.837 69.9495L328.232 71.6917C328.232 71.6917 331.073 78.5743 331.048 84.6197C331.024 90.6651 331.663 104.135 329.204 106.56C326.744 108.986 297.122 123.761 297.122 123.761C297.122 123.761 295.757 124.82 285.778 124.377C275.799 123.933 212.447 121.366 212.447 121.366L160.345 118.818L110.974 116.355C110.974 116.355 94.5888 115.998 93.3284 115.308C92.0679 114.619 90.9551 112.895 92.4122 112.581C94.1744 112.262 95.9706 112.176 97.7552 112.323C99.1939 112.477 122.023 114.022 122.023 114.022L146.21 115.253L179.301 116.687L210.264 118.097L241.178 119.476L275.381 120.886L293.15 121.274C293.15 121.274 295.456 121.612 296.076 121.397C296.697 121.181 326.314 105.705 326.314 105.705C326.314 105.705 328.195 104.289 328.583 99.684C328.97 95.0791 329.739 81.3323 327.863 77.7679C325.988 74.2034 326.935 73.6924 324.974 74.5728C323.012 75.4531 295.333 90.0741 295.333 90.0741L205.917 88.8429L93.1623 83.6347C93.1623 83.6347 89.6516 84.9522 89.9529 83.2038C90.2542 81.4554 94.558 79.2577 96.9374 78.6605C99.3169 78.0634 113.477 71.3346 113.477 71.3346L113.311 75.8348L108.957 78.4327C108.957 78.4327 108.957 80.8275 110.802 80.8952C112.646 80.9629 198.404 84.238 198.404 84.238L277.306 85.7709C277.306 85.7709 300.264 73.3723 301.837 69.9495Z" fill="#739598"/>
<path d="M112.474 76.6536C112.474 76.6536 104.401 79.4547 111.859 80.649C119.317 81.8433 217.445 84.9029 217.445 84.9029C217.445 84.9029 272.971 86.4727 276.162 85.7709C279.353 85.0691 284.456 82.1265 289.565 78.7836C294.674 75.4408 302.809 69.0691 302.809 69.0691L302.606 40.689L299.698 41.243V63.627C299.698 63.627 301.019 68.0226 299.175 69.2292L278.332 82.8775C278.332 82.8775 246.145 83.1915 236.357 82.4096C226.569 81.6278 164.452 79.7994 164.452 79.7994L114.497 77.8479C114.094 77.8039 113.706 77.6747 113.357 77.4688C113.008 77.2629 112.707 76.985 112.474 76.6536Z" fill="#B17B54"/>
<path d="M116.446 39.9258C116.446 39.9258 107.537 42.4868 109.621 43.8165C111.706 45.1463 109.314 45.0047 114.497 45.1586C119.68 45.3125 231.562 48.3352 231.562 48.3352L279.439 50.3298L288.422 44.4321L270.358 48.3352L202.56 43.9212L116.446 39.9258Z" fill="#B17B54"/>
<path d="M316.815 14.7653C316.815 14.7653 319.065 21.451 318.432 26.0497C317.798 30.6484 317.276 34.5576 317.276 34.5576L275.215 43.9212L270.352 45.1524L265.722 44.2782L196.344 40.88L144.526 38.5099L121.592 37.4756L116.145 36.6261C116.145 36.6261 113.685 35.5672 113.31 36.0905C112.935 36.6138 111.54 39.9258 113.993 39.9258C116.446 39.9258 187.158 42.9547 187.158 42.9547L253.308 47.1101L270.358 48.3413L319.76 36.6445C319.76 36.6445 321.026 23.8519 320.86 21.4325C320.694 19.0131 319.975 13.9281 319.366 13.177C318.758 12.426 317.343 13.4972 316.815 14.7653Z" fill="#84965D"/>
<path d="M317.073 14.0328C317.073 14.0328 280.183 22.3068 275.627 24.2521C271.071 26.1975 268.452 28.4815 264.849 27.792C258.256 26.294 251.511 25.5668 244.75 25.625C234.581 25.705 115.635 18.4037 114.497 18.81C113.36 19.2163 110.501 14.9501 113.427 14.039C116.354 13.1278 157.265 1.40026 162.983 1.61573C168.701 1.83119 318.758 12.4507 318.758 12.4507L317.073 14.0328Z" fill="#84965D"/>
<path d="M81.3882 46.7285C81.3882 46.7285 84.2902 39.6797 87.9424 38.6393C91.5945 37.5989 93.3836 36.6631 94.4904 36.3799C95.5971 36.0968 96.2795 35.9736 97.626 39.0333C98.9725 42.0929 101.235 45.9959 100.411 48.8832C99.8184 50.7543 98.9811 52.5386 97.9211 54.1899C97.6445 54.8055 98.3577 56.3815 96.4332 56.8678C94.5088 57.3542 90.8997 58.4746 89.2212 60.5123C88.0823 61.9565 87.0876 63.5092 86.2516 65.1479C86.2516 65.1479 85.6982 61.3003 85.4646 60.3646L85.2309 59.4411L89.9344 55.4334C90.3684 54.7197 91.0129 54.1583 91.7789 53.8267C92.8426 53.5127 95.4065 51.8197 95.886 50.6993C96.3656 49.5789 97.8781 46.8332 96.2057 43.8167C94.5334 40.8001 92.2831 40.9725 91.0596 41.1572C89.836 41.3419 86.7127 43.4904 86.2393 44.3892C85.5309 45.8601 85.2436 47.4988 85.4092 49.1233C85.6183 51.1549 85.9687 51.3888 84.5177 52.029C83.0667 52.6693 82.7962 54.6331 82.7962 54.6331C82.7962 54.6331 81.0132 51.6227 81.0193 50.3238C81.0741 49.1193 81.1973 47.919 81.3882 46.7285Z" fill="#ECDBC9"/>
<path d="M80.5213 43.2439C80.5213 43.2439 75.3013 40.4367 54.9625 41.4832C34.6238 42.5298 35.9026 41.4832 30.984 43.2439C26.0653 45.0046 25.3767 45.1339 25.6533 45.7064C25.93 46.2789 34.3902 47.1223 38.9461 47.2455C43.502 47.3686 53.8005 47.4856 61.5105 47.0854C69.2206 46.6852 77.6315 46.1373 79.3408 45.4909C81.05 44.8445 82.7101 44.0504 80.5213 43.2439Z" fill="#ECDBC9"/>
<path d="M26.8707 76.7214C26.8707 76.7214 22.2102 76.7214 20.2796 76.8445C18.349 76.9676 16.1356 76.8445 14.8691 77.1954C13.6025 77.5463 3.10112 78.9869 2.67688 79.2455C2.25265 79.504 -0.434184 80.6552 2.4248 81.7572C5.28379 82.8591 9.99957 83.955 15.9512 84.6506C21.9028 85.3463 34.5561 86.4605 36.8556 86.3559C39.1551 86.2512 39.2411 85.0692 38.1406 84.509C37.04 83.9488 29.5329 80.8645 27.4548 76.6968" fill="#ECDBC9"/>
<path d="M301.838 69.9495C317.725 70.8606 328.116 71.5193 328.232 71.6917C328.73 72.4366 330.47 75.6747 330.968 88.8675C331.466 102.06 329.474 106.05 329.474 106.05C331.227 106.665 300.719 122.505 298.634 123.158C296.55 123.81 296.421 124.592 292.547 124.592C288.674 124.592 282.433 124.161 249.079 122.868C215.724 121.575 96.6731 115.801 93.9064 115.481C91.6991 115.204 91.447 113.936 92.0619 113.018C92.1971 112.816 92.38 112.65 92.5945 112.535C92.8089 112.42 93.0483 112.36 93.2916 112.36C93.9374 112.327 94.5849 112.366 95.2221 112.477" stroke="#1D1D1B" stroke-width="2" stroke-miterlimit="10" stroke-linecap="round"/>
<path d="M113.477 71.3347L91.699 80.8091C91.215 81.0211 90.8104 81.3809 90.5431 81.8372C90.0021 82.7853 89.3627 84.3305 91.0043 84.232C92.2339 84.1643 92.6151 84.0042 92.732 83.8626C92.7802 83.7929 92.8445 83.7358 92.9194 83.6962C92.9943 83.6565 93.0776 83.6355 93.1623 83.6348C100.768 84.0288 195.373 88.9415 212.053 88.9415C229.422 88.9415 293.211 90.6775 295.302 90.0742C297.392 89.4709 325.232 73.4525 326.437 74.1789C327.642 74.9053 328.86 81.5663 329.007 90.8007C329.138 95.1096 328.754 99.4187 327.863 103.636C327.75 104.112 327.527 104.555 327.212 104.929" stroke="#1D1D1B" stroke-width="2" stroke-miterlimit="10"/>
<path d="M296.046 121.397C297.534 121.231 320.934 108.555 326.283 105.705" stroke="#1D1D1B" stroke-miterlimit="10" stroke-linecap="round"/>
<path d="M293.119 121.274C291.305 122.031 177.942 116.54 152.525 115.5C127.107 114.459 101.217 112.902 96.9128 112.212" stroke="#1D1D1B" stroke-miterlimit="10" stroke-linecap="round"/>
<path d="M94.1028 84.1089C94.1028 84.1089 94.1766 85.3401 94.5332 85.6048C94.8898 85.8696 94.3918 86.8361 94.9574 87.3101C95.5231 87.7841 95.3816 88.7322 95.6706 89.0154C95.9596 89.2986 96.0949 89.3725 96.0949 90.2959" stroke="#1D1D1B" stroke-width="0.75" stroke-miterlimit="10" stroke-linecap="round"/>
<path d="M96.4517 93.6572C96.5283 94.2705 96.5283 94.8909 96.4517 95.5041C96.3102 96.2121 96.8759 96.6368 96.8759 97.1355C96.8389 97.6088 96.8389 98.0843 96.8759 98.5576C96.9157 98.8414 96.9157 99.1294 96.8759 99.4133" stroke="#1D1D1B" stroke-width="0.75" stroke-miterlimit="10" stroke-linecap="round"/>
<path d="M97.2326 102.578C97.2326 102.578 97.4416 103.717 97.2326 103.932C97.0572 104.278 96.9487 104.654 96.9128 105.04" stroke="#1D1D1B" stroke-width="0.75" stroke-miterlimit="10" stroke-linecap="round"/>
<path d="M96.2979 107.884L96.0827 108.74C95.8675 109.59 95.5847 109.522 95.4679 110.23C95.3511 110.938 95.4064 111.005 95.4064 111.005" stroke="#1D1D1B" stroke-width="0.75" stroke-miterlimit="10" stroke-linecap="round"/>
<path d="M293.66 92.0073C293.66 92.0073 294.336 94.045 294.275 94.4698C294.214 94.8946 295.117 96.0827 294.89 96.6737C294.761 97.2347 294.776 97.8192 294.933 98.3728" stroke="#1D1D1B" stroke-miterlimit="10" stroke-linecap="round"/>
<path d="M294.89 100.072C294.89 100.072 295.277 101.599 294.89 101.771C294.502 101.943 295.505 102.7 295.062 103.211" stroke="#1D1D1B" stroke-miterlimit="10" stroke-linecap="round"/>
<path d="M295.228 106.739C295.228 106.739 295.843 107.164 295.652 107.509C295.462 107.854 295.966 108.186 295.683 108.863C295.4 109.54 294.804 111.239 295.228 111.837C295.443 112.089 295.577 112.4 295.612 112.73C295.647 113.059 295.582 113.392 295.425 113.683" stroke="#1D1D1B" stroke-miterlimit="10" stroke-linecap="round"/>
<path d="M294.933 120.486C294.784 119.995 294.691 119.489 294.656 118.978C294.656 118.362 295.308 117.617 295.148 117.131" stroke="#1D1D1B" stroke-miterlimit="10" stroke-linecap="round"/>
<path d="M299.852 99.6839C299.852 99.6839 304.125 97.3076 307.23 95.9471C307.894 95.6578 310.482 93.9586 311.681 93.38C316.096 91.2499 321.469 88.9783 322.705 88.3196C324.279 87.4885 325.638 86.8113 325.638 86.8113" stroke="#1D1D1B" stroke-width="0.75" stroke-miterlimit="10" stroke-linecap="round"/>
<path d="M297.866 105.163C297.866 105.163 306.615 100.269 308.349 100.072C310.083 99.8749 313.028 96.6306 314.159 96.6306" stroke="#1D1D1B" stroke-width="0.75" stroke-miterlimit="10" stroke-linecap="round"/>
<path d="M324.943 91.5703C324.943 91.5703 320.572 92.2721 320.19 93.1648C319.809 94.0574 316.649 95.1902 316.649 95.1902" stroke="#1D1D1B" stroke-width="0.75" stroke-miterlimit="10" stroke-linecap="round"/>
<path d="M298.622 113.579C300.966 112.119 303.435 110.87 306 109.848C309.923 108.334 310.378 106.598 311.657 106.524" stroke="#1D1D1B" stroke-width="0.75" stroke-miterlimit="10" stroke-linecap="round"/>
<path d="M324.267 98.7424C323.083 99.2374 321.926 99.7922 320.799 100.405C319.668 101.088 315.745 104.468 314.989 104.474C314.365 104.565 313.771 104.801 313.255 105.163" stroke="#1D1D1B" stroke-width="0.75" stroke-miterlimit="10" stroke-linecap="round"/>
<path d="M324.267 78.5066C324.267 78.5066 321.248 80.0887 320.043 80.7721C318.838 81.4554 310.611 84.9214 308.428 86.091" stroke="#1D1D1B" stroke-width="0.75" stroke-miterlimit="10" stroke-linecap="round"/>
<path d="M302.618 88.5474C302.618 88.5474 300.128 89.6801 298.622 90.4373C297.701 90.8969 296.742 91.2759 295.757 91.5701" stroke="#1D1D1B" stroke-width="0.75" stroke-miterlimit="10" stroke-linecap="round"/>
<path d="M297.128 95.1901C297.128 95.1901 303.756 92.112 305.121 92.0074C306.486 91.9027 308.047 90.2159 308.951 90.062" stroke="#1D1D1B" stroke-width="0.75" stroke-miterlimit="10" stroke-linecap="round"/>
<path d="M314.159 87.8025C314.159 87.8025 316.206 86.2204 317.743 86.1095C319.537 85.8427 321.237 85.1364 322.693 84.0534L323.922 83.1238" stroke="#1D1D1B" stroke-width="0.75" stroke-miterlimit="10" stroke-linecap="round"/>
<path d="M302.618 41.4832C302.292 43.7987 302.292 46.1487 302.618 48.4643C303.129 52.8229 302.532 66.3481 302.391 68.9645C302.249 71.5809 278.726 85.4447 278.726 85.4447C278.726 85.4447 265.199 86.6328 204.011 84.4535C142.823 82.2742 110.993 80.9937 110.304 80.8829C109.615 80.7721 108.25 79.1654 109.394 78.0265C110.538 76.8876 111.675 77.337 112.468 76.6536" stroke="#1D1D1B" stroke-width="2" stroke-miterlimit="10" stroke-linecap="round"/>
<path d="M299.907 42.2468V49.6958C299.907 51.5427 299.679 52.6693 299.907 54.8363C300.134 57.0033 299.477 60.3215 299.809 61.8051C300.141 63.2888 300.423 68.0845 299.71 68.8848" stroke="#1D1D1B" stroke-width="2" stroke-miterlimit="10" stroke-linecap="round"/>
<path d="M288.446 44.4321C288.446 44.4321 280.853 49.8681 279.464 50.3298C278.074 50.7915 233.966 48.5445 233.966 48.5445C233.966 48.5445 114.27 45.0539 111.737 45.1463C109.203 45.2386 109.566 42.9731 109.652 42.5175C109.738 42.062 116.471 39.9258 116.471 39.9258" stroke="#1D1D1B" stroke-width="2" stroke-miterlimit="10" stroke-linecap="round"/>
<path d="M278.332 82.8902L299.71 68.8848" stroke="#1D1D1B" stroke-width="2" stroke-miterlimit="10" stroke-linecap="round"/>
<path d="M277.988 52.4229C277.988 52.4229 277.73 53.4817 277.576 53.531C277.422 53.5802 277.422 54.6514 277.576 54.8607C277.71 55.2713 277.76 55.7047 277.724 56.135C277.724 56.4921 277.244 57.5079 277.459 58.0743C277.675 58.6406 277.459 59.0408 277.404 59.5518" stroke="#1D1D1B" stroke-miterlimit="10" stroke-linecap="round"/>
<path d="M277.675 62.2051C277.675 62.2051 278.05 63.2147 277.675 63.6272C277.299 64.0396 277.619 65.1108 277.379 65.5725" stroke="#1D1D1B" stroke-miterlimit="10" stroke-linecap="round"/>
<path d="M277.404 69.9495C277.404 69.9495 276.912 71.076 277.115 71.6363C277.318 72.1965 277.644 72.4489 277.404 72.9106C277.164 73.3723 277.49 74.0803 277.404 74.4373C277.318 74.7944 277.988 76.0749 277.988 76.0749" stroke="#1D1D1B" stroke-miterlimit="10" stroke-linecap="round"/>
<path d="M277.404 81.9972C277.344 81.5746 277.344 81.1455 277.404 80.7229C277.527 80.4151 277.134 78.9868 277.404 78.7837" stroke="#1D1D1B" stroke-miterlimit="10" stroke-linecap="round"/>
<path d="M113.157 46.7283C113.045 47.4401 113.045 48.165 113.157 48.8768C113.378 49.4308 112.997 50.3112 113.157 51.524C113.237 52.2934 113.237 53.0692 113.157 53.8387" stroke="#1D1D1B" stroke-miterlimit="10" stroke-linecap="round"/>
<path d="M113.144 56.8738C113.22 57.476 113.249 58.0832 113.23 58.6899C113.11 59.5484 113.054 60.4147 113.064 61.2816C113.182 61.8899 113.209 62.5123 113.144 63.1285" stroke="#1D1D1B" stroke-miterlimit="10" stroke-linecap="round"/>
<path d="M113.052 65.6401C112.915 66.1867 112.947 66.7622 113.145 67.29C113.489 67.8441 113.188 68.0657 113.231 68.5582" stroke="#1D1D1B" stroke-miterlimit="10" stroke-linecap="round"/>
<path d="M113.427 70.5283C113.427 70.5283 113.544 72.4737 113.544 73.0277C113.479 73.5569 113.44 74.0891 113.427 74.6222C113.446 75.0361 113.407 75.4505 113.311 75.8534" stroke="#1D1D1B" stroke-miterlimit="10" stroke-linecap="round"/>
<path d="M114.497 42.573L204.466 43.9212" stroke="#1D1D1B" stroke-miterlimit="10" stroke-linecap="round"/>
<path d="M279.765 59.552C279.765 59.552 289.172 54.0976 292.111 52.4231C293.875 51.4151 295.554 50.262 297.128 48.9756" stroke="#1D1D1B" stroke-width="0.75" stroke-miterlimit="10" stroke-linecap="round"/>
<path d="M286.467 60.0445C286.467 60.0445 291.582 56.0491 292.842 55.9875C294.103 55.9259 297.146 53.5681 297.146 53.5681" stroke="#1D1D1B" stroke-width="0.75" stroke-miterlimit="10" stroke-linecap="round"/>
<path d="M283.527 61.571C283.527 61.571 279.765 63.2578 279.765 63.8858" stroke="#1D1D1B" stroke-width="0.75" stroke-miterlimit="10" stroke-linecap="round"/>
<path d="M294.275 46.2727C294.275 46.2727 291.736 48.5074 290.672 48.9753C289.609 49.4432 287.1 50.0465 286.983 50.3974" stroke="#1D1D1B" stroke-width="0.75" stroke-miterlimit="10" stroke-linecap="round"/>
<path d="M284.001 52.4229C284.001 52.4229 282.827 54.2697 281.646 54.5098C280.854 54.7453 280.182 55.2735 279.765 55.9873" stroke="#1D1D1B" stroke-width="0.75" stroke-miterlimit="10" stroke-linecap="round"/>
<path d="M297.128 58.6284C297.128 58.6284 296.138 59.244 294.828 60.0443" stroke="#1D1D1B" stroke-width="0.75" stroke-miterlimit="10" stroke-linecap="round"/>
<path d="M291.816 61.571C291.816 61.571 287.899 62.8023 286.485 63.8858C285.447 64.7676 284.189 65.3507 282.845 65.5726C282.138 65.5726 279.771 68.2813 279.771 68.2813" stroke="#1D1D1B" stroke-width="0.75" stroke-miterlimit="10" stroke-linecap="round"/>
<path d="M280.355 72.7138C280.355 72.7138 288.514 68.0474 290.666 67.2225C292.818 66.3976 297.866 63.2209 297.866 63.2209" stroke="#1D1D1B" stroke-width="0.75" stroke-miterlimit="10" stroke-linecap="round"/>
<path d="M280.829 76.6846C280.829 76.6846 284.161 74.3576 285.784 73.7789C287.407 73.2002 288.022 73.3911 289.018 72.2275" stroke="#1D1D1B" stroke-width="0.75" stroke-miterlimit="10" stroke-linecap="round"/>
<path d="M297.128 66.8037C296.258 67.5913 295.31 68.2884 294.3 68.8845C293.041 69.6333 291.828 70.4556 290.666 71.347" stroke="#1D1D1B" stroke-width="0.75" stroke-miterlimit="10" stroke-linecap="round"/>
<path d="M114.497 35.9796C114.21 35.8999 113.904 35.9169 113.628 36.0282C113.351 36.1394 113.119 36.3387 112.966 36.5952C112.717 36.8924 112.561 37.2564 112.518 37.6417C112.474 38.027 112.544 38.4167 112.72 38.7622C113.249 39.6241 114.387 39.464 114.817 39.4825C231.291 44.4075 269.387 48.6122 270.37 48.3167C271.354 48.0212 290.395 43.798 295.769 42.2528C301.143 40.7076 317.522 37.1986 319.041 37.1986C320.559 37.1986 320.313 32.3782 320.811 24.2705C321.309 16.1628 318.77 11.8349 318.77 11.8349C318.77 11.8349 169.322 1 164.545 1C159.768 1 114.061 12.2967 112.505 13.9896C110.95 15.6826 112.339 18.2251 116.299 18.5083C120.258 18.7915 251.685 25.0092 257.612 25.8526C263.539 26.696 266.915 28.112 269.171 26.9854C271.428 25.8588 269.313 24.7753 285.772 20.9277C302.231 17.08 313.593 14.636 314.995 14.636C316.397 14.636 317.061 14.0696 317.061 13.4048" stroke="#1D1D1B" stroke-width="2" stroke-miterlimit="10" stroke-linecap="round"/>
<path d="M268.858 28.7031C268.858 28.7031 268.766 29.8728 269.215 30.236C269.663 30.5992 269.307 32.1321 269.756 32.7662" stroke="#1D1D1B" stroke-miterlimit="10" stroke-linecap="round"/>
<path d="M269.755 35.3948C269.755 35.3948 270.253 36.4352 270.106 36.6568C269.954 36.8837 269.861 37.1442 269.833 37.4157C269.805 37.6872 269.844 37.9613 269.946 38.2143C270.131 38.6595 270.195 39.1461 270.13 39.6241" stroke="#1D1D1B" stroke-miterlimit="10" stroke-linecap="round"/>
<path d="M270.155 43.8288C270.442 43.4453 270.582 42.9711 270.549 42.4929" stroke="#1D1D1B" stroke-miterlimit="10" stroke-linecap="round"/>
<path d="M117.27 19.9243C117.27 19.9243 117.836 20.306 117.756 21.5311C117.676 22.7562 117.467 22.9039 117.756 23.378C118.045 23.852 117.977 24.6769 118.131 25.0586" stroke="#1D1D1B" stroke-miterlimit="10" stroke-linecap="round"/>
<path d="M118.432 26.8069C118.192 27.1951 118.086 27.6515 118.131 28.1058C118.334 28.7236 118.436 29.3701 118.432 30.0204V30.9377" stroke="#1D1D1B" stroke-miterlimit="10" stroke-linecap="round"/>
<path d="M117.707 35.9118C117.937 35.838 118.135 35.6869 118.267 35.4839C118.399 35.2809 118.458 35.0385 118.432 34.7975C118.388 34.2505 118.388 33.7008 118.432 33.1538" stroke="#1D1D1B" stroke-miterlimit="10" stroke-linecap="round"/>
<path d="M116.145 36.626C116.145 36.626 117.492 37.3032 122.226 37.5063C126.96 37.7095 261.646 43.7487 267.708 44.4321" stroke="#1D1D1B" stroke-miterlimit="10" stroke-linecap="round"/>
<path d="M317.276 15.978C317.276 15.978 318.432 22.1342 318.432 24.2458C318.432 26.3574 317.276 34.5575 317.276 34.5575C317.276 34.5575 311.859 35.4748 307.186 36.7799C302.514 38.085 277.674 43.761 275.258 43.9211" stroke="#1D1D1B" stroke-width="2" stroke-miterlimit="10" stroke-linecap="round"/>
<path d="M114.497 77.842C114.497 77.842 243.084 82.9517 254.065 82.8901C265.046 82.8286 275.215 82.8901 275.215 82.8901" stroke="#1D1D1B" stroke-miterlimit="10"/>
<path d="M319.028 73.1816C319.028 73.1816 294.275 86.6945 293.119 87.224" stroke="#1D1D1B" stroke-miterlimit="10"/>
<path d="M271.705 28.703C271.705 28.703 278.634 26.573 280.239 26.6961C281.843 26.8192 286.664 25.5818 288.447 25.3356C290.23 25.0893 292.584 24.72 292.584 24.72" stroke="#1D1D1B" stroke-width="0.75" stroke-miterlimit="10" stroke-linecap="round"/>
<path d="M295.978 23.7042C295.978 23.7042 300.491 22.7131 302.126 22.7131C303.762 22.7131 306.104 20.9832 306.104 20.9832" stroke="#1D1D1B" stroke-width="0.75" stroke-miterlimit="10" stroke-linecap="round"/>
<path d="M309.757 20.2997C310.885 19.7485 312.108 19.4144 313.36 19.3147C314.113 19.3775 314.87 19.2483 315.561 18.9392" stroke="#1D1D1B" stroke-width="0.75" stroke-miterlimit="10" stroke-linecap="round"/>
<path d="M309.757 24.3937C310.885 23.8425 312.108 23.5084 313.36 23.4087C314.113 23.4715 314.87 23.3423 315.561 23.0332" stroke="#1D1D1B" stroke-width="0.75" stroke-miterlimit="10" stroke-linecap="round"/>
<path d="M272.467 31.7257C272.467 31.7257 277.828 30.4944 279.365 30.7099C280.902 30.9254 288.323 28.4814 289.11 28.6783C289.897 28.8753 291.815 27.995 291.815 27.995C291.815 27.995 294.73 27.6626 297.146 27.2255C299.562 26.7884 302.63 25.6864 303.294 25.6864C303.958 25.6864 305.489 24.6707 305.489 24.6707" stroke="#1D1D1B" stroke-width="0.75" stroke-miterlimit="10" stroke-linecap="round"/>
<path d="M315.56 27.4719C315.56 27.4719 309.959 28.1491 307.801 28.7032C305.643 29.2572 301.997 29.3188 300.183 29.4481C298.37 29.5773 292.559 31.8613 291.133 31.7505" stroke="#1D1D1B" stroke-width="0.75" stroke-miterlimit="10" stroke-linecap="round"/>
<path d="M285.784 32.7412C285.784 32.7412 281.259 33.9232 279.765 33.9232C278.271 33.9232 273.672 35.3945 273.672 35.3945" stroke="#1D1D1B" stroke-width="0.75" stroke-miterlimit="10" stroke-linecap="round"/>
<path d="M274.33 39.6241C274.33 39.6241 278.664 37.4756 280.829 37.5063C282.993 37.5371 286.282 36.706 287.924 36.626C289.532 36.4616 291.105 36.0462 292.584 35.3948C293.076 35.13 295.978 35.3948 295.978 35.3948" stroke="#1D1D1B" stroke-width="0.75" stroke-miterlimit="10" stroke-linecap="round"/>
<path d="M315.001 31.1655C315.001 31.1655 312.812 31.9351 311.712 31.7134C310.611 31.4918 307.986 32.3291 307.113 32.7292" stroke="#1D1D1B" stroke-width="0.75" stroke-miterlimit="10" stroke-linecap="round"/>
<path d="M303.332 32.7412C302.331 33.3141 301.263 33.7608 300.153 34.071L298.776 34.3603" stroke="#1D1D1B" stroke-width="0.75" stroke-miterlimit="10" stroke-linecap="round"/>
<path d="M116.145 15.9779C116.145 15.9779 171.185 18.7605 177.782 18.939C184.379 19.1176 253.665 22.6328 257.176 23.0206C268.858 24.3811 266.638 23.1499 269.301 22.3434C271.963 21.5369 296.968 15.1037 303.332 14.4019C305.711 14.1433 313.114 13.1707 313.114 13.1707" stroke="#1D1D1B" stroke-miterlimit="10" stroke-linecap="round"/>
<path d="M79.9866 76.7217C81.6051 76.8567 83.2145 77.0849 84.8069 77.405C86.3317 77.8052 89.5842 77.6082 91.5024 78.0699C93.4207 78.5316 94.1093 78.1376 95.8985 78.6855" stroke="#1D1D1B" stroke-width="2" stroke-miterlimit="10" stroke-linecap="round"/>
<path d="M27.5963 76.863C27.5963 76.863 21.909 76.5429 20.2797 76.863C18.6504 77.1831 16.1111 76.8199 14.8692 77.2139C13.8222 77.5979 12.7191 77.8059 11.6044 77.8295C10.4792 77.8295 8.9606 78.3405 8.28428 78.3405C7.17866 78.3651 6.08104 78.5348 5.01951 78.8453C4.40467 79.1285 2.59706 79.0115 2.2589 79.5225C1.92074 80.0334 0.850924 80.2551 1.13375 80.8214C1.41657 81.3878 2.31423 81.4925 2.4249 81.7756C2.53557 82.0588 4.34319 82.342 4.73668 82.6806C5.13018 83.0192 7.44196 83.0746 8.39495 83.524C9.34795 83.9734 12.4652 83.9734 13.9285 84.429C15.3918 84.8845 16.2833 84.429 18.7057 84.9892C21.1282 85.5494 25.6472 85.3278 26.7662 85.7772C27.8852 86.2266 33.966 85.7218 35.8228 86.4544C38.4484 86.2061 41.0916 86.2061 43.7173 86.4544C46.9636 86.9099 49.8656 86.0727 52.2696 86.4544C54.2876 86.7698 56.3383 86.8174 58.3688 86.596C60.8281 86.442 63.0046 86.9407 65.1935 86.7252C67.3823 86.5098 70.4318 86.0481 72.5715 86.2451C74.7111 86.4421 77.0106 85.9803 79.4638 85.7833C81.917 85.5863 80.6566 86.048 85.4953 85.5186C90.3341 84.9892 91.8773 85.5679 94.103 85.1677" stroke="#1D1D1B" stroke-miterlimit="10" stroke-linecap="round"/>
<path d="M25.8809 45.7312C25.8809 45.7312 26.0777 50.927 25.7334 52.5831C25.3891 54.2391 21.7185 58.1729 21.7185 63.1779C21.7185 66.1452 22.3333 70.5654 26.5019 75.5827C30.9656 80.9571 31.0763 80.7047 33.1483 81.7389C36.0196 83.2041 37.5013 84.0721 38.2084 85.1618C38.3873 85.4585 38.6286 85.7127 38.9155 85.9067" stroke="#1D1D1B" stroke-width="2" stroke-miterlimit="10" stroke-linecap="round"/>
<path d="M69.5281 85.9558C69.5281 85.9558 69.6019 83.8011 73.2847 82.1143C76.9676 80.4275 78.4309 77.1893 79.7343 76.426C81.0378 75.6626 83.9829 73.5572 85.1818 70.5099C85.8315 68.6427 86.1923 66.687 86.2516 64.7107" stroke="#1D1D1B" stroke-width="2" stroke-miterlimit="10" stroke-linecap="round"/>
<path d="M90.9551 41.2864C93.0886 40.837 94.9085 41.588 95.7693 42.9793C97.0727 45.0663 97.2572 47.812 96.3841 49.5788C95.511 51.3456 94.5396 52.6015 93.4083 53.1617C92.277 53.7219 91.1826 53.8574 90.5739 54.6946C89.6697 55.7637 88.6372 56.7169 87.4997 57.5326C86.2701 58.5053 85.2249 59.441 85.2249 59.441" stroke="#1D1D1B" stroke-width="0.75" stroke-miterlimit="10" stroke-linecap="round"/>
<path d="M82.8086 54.1959C82.8086 54.1959 83.7001 52.4906 84.1612 52.232C85.2249 51.6164 85.7414 51.4871 85.6922 50.6499C85.643 49.8126 84.112 45.7249 87.5367 42.9792C88.2717 42.4 89.0962 41.9447 89.9776 41.631L90.9552 41.2678" stroke="#1D1D1B" stroke-width="0.75" stroke-miterlimit="10" stroke-linecap="round"/>
<path d="M82.0032 45.2139C82.0032 45.2139 80.3432 48.1196 81.3884 51.1854C82.4336 54.2512 84.9606 58.5728 85.5078 60.4197C86.055 62.2666 86.0489 66.0527 86.0489 66.0527C86.0489 66.0527 86.2763 64.095 88.2684 61.5832C90.219 59.2646 92.8833 57.66 95.8432 57.0215C98.2226 56.5721 97.6447 55.7348 97.6447 54.8299C97.6447 53.9249 99.9626 52.8353 100.411 48.9014C100.86 44.9676 97.6446 39.427 97.2573 38.1342C96.87 36.8414 96.0276 35.4932 94.4905 36.392C92.9535 37.2908 92.646 37.3647 88.6988 38.3928C84.7516 39.4209 82.0032 45.2262 82.0032 45.2262" stroke="#1D1D1B" stroke-miterlimit="10" stroke-linecap="round"/>
<path d="M81.0317 43.6073C80.6567 43.2748 79.9804 42.8562 78.3387 42.4437C78.3387 42.4437 71.8522 41.3849 58.5349 41.4526C45.2176 41.5203 36.1118 42.0066 31.765 43.0409C29.976 43.481 28.2179 44.0384 26.502 44.7092C26.502 44.7092 25.0448 45.3248 25.8871 45.7496C26.3794 45.9671 26.8984 46.1182 27.4304 46.199" stroke="#1D1D1B" stroke-miterlimit="10" stroke-linecap="round"/>
<path d="M30.5845 46.636C34.8883 47.1901 41.4302 47.5041 50.4621 47.3932C59.8691 47.2824 78.8183 46.6422 81.0317 44.863" stroke="#1D1D1B" stroke-width="0.75" stroke-miterlimit="10" stroke-linecap="round"/>
<path d="M80.6566 75.6748C78.4544 77.4816 75.7675 78.5954 72.9343 78.876C68.1324 79.3808 71.9567 78.9807 71.9567 78.9807" stroke="#1D1D1B" stroke-width="0.75" stroke-miterlimit="10" stroke-linecap="round"/>
<path d="M68.2308 79.1286C68.2308 79.1286 50.3637 80.1936 41.0735 79.3256C36.4008 78.8885 33.6955 78.5068 32.14 78.2298C30.5845 77.9527 26.8708 75.5457 26.8708 75.5457" stroke="#1D1D1B" stroke-width="0.75" stroke-miterlimit="10" stroke-linecap="round"/>
<path d="M75.0618 96.5569C75.0618 96.5569 83.8293 96.1137 90.6601 93.6881C91.6266 93.3391 92.5556 92.8936 93.433 92.3584L96.0953 90.9055" stroke="#1D1D1B" stroke-width="2" stroke-miterlimit="10" stroke-linecap="round"/>
<path d="M1.13372 80.8032C1.13372 80.8032 0.217613 81.345 3.18112 83.4996C6.14463 85.6543 11.7027 90.3269 16.9842 92.4015C20.9418 94.0576 25.1017 95.1797 29.3547 95.7382C32.2505 96.0399 35.3616 96.3538 35.3616 96.3538" stroke="#1D1D1B" stroke-width="2" stroke-miterlimit="10" stroke-linecap="round"/>
<path d="M38.1592 96.5569C38.1592 96.5569 50.6834 97.5973 60.8343 97.3757C70.9852 97.154 71.9505 96.9817 71.9505 96.9817" stroke="#1D1D1B" stroke-width="0.75" stroke-miterlimit="10" stroke-linecap="round"/>
<path d="M30.2896 95.8367C30.3497 96.35 30.5355 96.8406 30.8304 97.2648C31.1254 97.689 31.5204 98.0337 31.9803 98.2684C33.665 99.2965 40.4835 100.084 49.8721 100.405C56.1949 100.609 62.5243 100.377 68.8151 99.7089C70.9486 99.4935 73.7338 99.0933 75.2709 98.1637C76.0517 97.7547 76.7095 97.1448 77.1769 96.3969" stroke="#1D1D1B" stroke-width="2" stroke-miterlimit="10" stroke-linecap="round"/>
</svg>
