<svg xmlns="http://www.w3.org/2000/svg" viewBox="0 0 238.92 298.5"><defs><style>.cls-1{fill:#fbf6ef;}.cls-2{fill:#ecdbc9;}.cls-3{fill:#84965d;}.cls-4,.cls-5,.cls-6,.cls-7{fill:none;stroke:#1d1d1b;stroke-miterlimit:10;}.cls-4,.cls-5{stroke-width:2px;}.cls-5,.cls-6,.cls-7{stroke-linecap:round;}.cls-7{stroke-width:0.75px;}.cls-8{font-size:16px;fill:#fff;font-family:Calibri;letter-spacing:0.02em;}.cls-9{letter-spacing:0.01em;}</style></defs><g id="Layer_2" data-name="Layer 2"><g id="Layer_3" data-name="Layer 3"><path class="cls-1" d="M228.34,15.64l-4.53-5.35L83.43,14.37s4,1.47,5.89,1.47Z"/><rect class="cls-2" x="-29.79" y="29.79" width="298.5" height="238.92" transform="translate(268.71 29.79) rotate(90)"/><path class="cls-3" d="M222.38,10.29h4.36s-3.21-5.63-4.36-5.63S26.32,12.55,26.32,12.55L7.69,13.75S2.55,16,18.79,16.51s77.12-2.58,77.12-2.58Z"/><path class="cls-3" d="M232,15.84H38.21s-22.28,1.52-27.63,0-5.72,0-5.72,0,.14,93.76,0,102.3c-.42,26.59,0,173.61,0,173.61S5,293.2,7.57,293.2s4.16-1.08,5.06-1.08,138-.77,155.33,1.08c14.77,1.58,52.34.47,63.19.11a3.06,3.06,0,0,0,3-3.08c-.05-9.56-.17-39.56,0-51.15.23-13.87-.22-53,0-64.9s-.09-90.66.07-105.53c.14-12.75,0-42.5-.05-50.69A2.14,2.14,0,0,0,232,15.84Z"/><path class="cls-4" d="M10.1,15.84a13.39,13.39,0,0,0-4.24-.59c-1.37.24-1.44.78-1,2.86s.06,66.33.06,66.33L4.79,264.66,4.67,288.3s-1,5.3,2.9,4.9,4.37-1.08,5.06-1.08,123.27.06,132.71.26,30.58,1.48,37.36,1.56,45.12,0,47.62-.6,4.13-.12,3.78-5.51.1-127.28.1-127.28l0-139.08,0-2.88a2.73,2.73,0,0,0-2.73-2.75H45.32s-18.35.68-23.13.66-9.16,0-9.16,0"/><path class="cls-5" d="M226.34,9.58s-2.09-4.25-4-4.25S74.32,11.1,60.67,11.1s-51.79,2.5-53,2.65a2.77,2.77,0,0,0-1.83,1.5"/><line class="cls-6" x1="223.81" y1="10.29" x2="40.02" y2="15.64"/><path class="cls-7" d="M226.74,13.78s-.78,0-.8-.66-1.13-1.19-1.13-1.19"/><path class="cls-7" d="M15.68,22.74s.93,27.31,0,38.89.93,168.52,0,178.7-2.31,47.22-2.31,47.22"/><text class="cls-8" transform="translate(74.88 94.28) rotate(-0.34)">V<tspan class="cls-9" x="9.35" y="0">E</tspan><tspan x="17.25" y="0">CKANS BOK</tspan></text></g></g></svg>