<svg width="16" height="17" viewBox="0 0 16 17" fill="none" xmlns="http://www.w3.org/2000/svg">
<rect y="0.297119" width="16" height="16" rx="8" fill="#B17B54"/>
<path d="M2.84912 10.2161L3.47283 9.96139C3.52828 9.9406 3.57505 9.91114 3.61317 9.87303C3.65475 9.83491 3.67554 9.77947 3.67554 9.7067V6.21391C3.67554 6.14114 3.65302 6.08397 3.60797 6.04239C3.56639 6.00081 3.51442 5.96789 3.45204 5.94363L2.84912 5.69415V5.25755L5.21923 4.95609V5.84488H5.2816C5.43407 5.64044 5.58653 5.47758 5.73899 5.3563C5.89492 5.23156 6.04738 5.138 6.19638 5.07563C6.34885 5.00979 6.49611 4.96648 6.63818 4.94569C6.78371 4.9249 6.92578 4.91451 7.06438 4.91451C7.24803 4.91451 7.42302 4.93356 7.58934 4.97168C7.75567 5.00979 7.90986 5.07043 8.05193 5.15359C8.194 5.23676 8.32047 5.34591 8.43136 5.48104C8.54224 5.61618 8.6306 5.77904 8.69643 5.96962C8.89048 5.72013 9.07239 5.52609 9.24218 5.38749C9.41197 5.24542 9.5731 5.13973 9.72556 5.07043C9.88149 4.99767 10.0305 4.95435 10.1726 4.94049C10.3146 4.92317 10.455 4.91451 10.5936 4.91451C10.8361 4.91451 11.0665 4.95089 11.2848 5.02365C11.5031 5.09296 11.6937 5.20384 11.8566 5.3563C12.0229 5.50877 12.1528 5.70454 12.2464 5.94363C12.3434 6.18272 12.3919 6.46859 12.3919 6.80124V9.69111C12.3919 9.77081 12.411 9.82971 12.4491 9.86783C12.4872 9.90248 12.5375 9.93367 12.5998 9.96139L13.1508 10.2161V10.6527H10.0322V10.2161L10.5416 9.96139C10.604 9.93367 10.6542 9.90248 10.6923 9.86783C10.7304 9.82971 10.7495 9.76907 10.7495 9.68591V7.43015C10.7495 7.19452 10.7374 6.98662 10.7131 6.80644C10.6923 6.62279 10.6473 6.47032 10.578 6.34905C10.5121 6.2243 10.4186 6.13075 10.2973 6.06837C10.1795 6.00254 10.0236 5.96962 9.82951 5.96962C9.74635 5.96962 9.65972 5.97482 9.56963 5.98521C9.47954 5.99214 9.38772 6.0112 9.29416 6.04239C9.20407 6.07357 9.11744 6.12035 9.03428 6.18272C8.95112 6.24163 8.87662 6.32306 8.81078 6.42701V9.69111C8.81078 9.77427 8.82984 9.83145 8.86795 9.86263C8.90953 9.89382 8.95978 9.92673 9.01868 9.96139L9.46568 10.2161V10.6527H6.54462V10.2161L7.03839 9.96139C7.10077 9.93367 7.15101 9.90248 7.18913 9.86783C7.22724 9.82971 7.2463 9.77081 7.2463 9.69111V7.43015C7.2463 7.19452 7.23417 6.98662 7.20992 6.80644C7.18913 6.62279 7.14581 6.47032 7.07998 6.34905C7.01414 6.2243 6.92058 6.13075 6.79931 6.06837C6.68149 6.00254 6.5273 5.96962 6.33672 5.96962C6.24663 5.96962 6.1548 5.97482 6.06124 5.98521C5.96769 5.99214 5.87586 6.0112 5.78577 6.04239C5.69568 6.07357 5.60905 6.11862 5.52589 6.17752C5.44273 6.23643 5.37169 6.31613 5.31279 6.41661V9.7067C5.31279 9.77947 5.33185 9.83318 5.36996 9.86783C5.41154 9.89901 5.46005 9.9302 5.5155 9.96139L5.97808 10.2161V10.6527H2.84912V10.2161Z" fill="#FBF6EF"/>
<path d="M2.85034 11.6797H13.094" stroke="#FBF6EF" stroke-width="0.451925"/>
</svg>